G04*
G04 #@! TF.GenerationSoftware,Altium Limited,Altium Designer,20.0.11 (256)*
G04*
G04 Layer_Color=8388736*
%FSLAX25Y25*%
%MOIN*%
G70*
G01*
G75*
%ADD37R,0.03162X0.06509*%
%ADD38R,0.10839X0.06902*%
%ADD39R,0.04737X0.08280*%
%ADD40R,0.06312X0.05328*%
%ADD41R,0.11430X0.05721*%
%ADD42R,0.04343X0.03162*%
%ADD43R,0.05721X0.11430*%
%ADD44R,0.06706X0.03950*%
%ADD45R,0.03950X0.06706*%
%ADD46R,0.03162X0.04343*%
%ADD47R,0.22650X0.08871*%
%ADD48R,0.25210X0.23635*%
%ADD49R,0.12611X0.07099*%
%ADD50R,0.07887X0.09461*%
%ADD51O,0.07099X0.02965*%
%ADD52O,0.02965X0.07099*%
%ADD53R,0.06312X0.06706*%
%ADD54R,0.06706X0.12611*%
%ADD55R,0.05328X0.06312*%
%ADD56O,0.03162X0.09461*%
%ADD57O,0.09461X0.03162*%
%ADD58C,0.07690*%
%ADD59R,0.07690X0.07690*%
%ADD60R,0.10642X0.10642*%
%ADD61C,0.10642*%
%ADD62R,0.07690X0.07690*%
%ADD63C,0.06706*%
%ADD64C,0.08674*%
%ADD65C,0.06800*%
%ADD66C,0.12611*%
%ADD67C,0.28359*%
D37*
X92520Y58563D02*
D03*
X88779Y67421D02*
D03*
X96260D02*
D03*
D38*
X37008Y44882D02*
D03*
X24409D02*
D03*
X72285Y10654D02*
D03*
X59687D02*
D03*
D39*
X82677Y32480D02*
D03*
X94488D02*
D03*
D40*
X102362Y220878D02*
D03*
Y213595D02*
D03*
X7717Y21555D02*
D03*
Y28839D02*
D03*
X48819Y34843D02*
D03*
Y27559D02*
D03*
X25984Y218602D02*
D03*
Y211319D02*
D03*
X90945Y213595D02*
D03*
Y220878D02*
D03*
X102362Y238897D02*
D03*
Y231613D02*
D03*
X28346Y246161D02*
D03*
Y238878D02*
D03*
X92520Y108563D02*
D03*
Y115847D02*
D03*
X102362Y102657D02*
D03*
Y109941D02*
D03*
X75787Y138819D02*
D03*
Y131535D02*
D03*
X82677Y109941D02*
D03*
Y102657D02*
D03*
X63386Y258130D02*
D03*
Y250847D02*
D03*
X7717Y37382D02*
D03*
Y44665D02*
D03*
D41*
X106280Y190256D02*
D03*
Y201870D02*
D03*
X61417Y109153D02*
D03*
Y120768D02*
D03*
X48366Y68484D02*
D03*
Y56870D02*
D03*
D42*
X84646Y196653D02*
D03*
Y190748D02*
D03*
X89961Y196653D02*
D03*
Y190748D02*
D03*
X96260Y246752D02*
D03*
Y240846D02*
D03*
X90945Y246752D02*
D03*
Y240846D02*
D03*
X85433Y246752D02*
D03*
Y240846D02*
D03*
X79921Y246752D02*
D03*
Y240846D02*
D03*
X34390Y178150D02*
D03*
Y184055D02*
D03*
X89130Y284842D02*
D03*
Y278937D02*
D03*
X93209Y265059D02*
D03*
Y270965D02*
D03*
X35571Y247047D02*
D03*
Y241142D02*
D03*
X21260Y247047D02*
D03*
Y241142D02*
D03*
X102362Y158169D02*
D03*
Y164075D02*
D03*
X96850Y279134D02*
D03*
Y285039D02*
D03*
X74803Y255315D02*
D03*
Y261221D02*
D03*
D43*
X45177Y134646D02*
D03*
X33563D02*
D03*
X56595Y181102D02*
D03*
X44980D02*
D03*
D44*
X165039Y285039D02*
D03*
Y279134D02*
D03*
Y273228D02*
D03*
Y267323D02*
D03*
Y261417D02*
D03*
Y255512D02*
D03*
Y249606D02*
D03*
Y243701D02*
D03*
Y237795D02*
D03*
Y231890D02*
D03*
Y225984D02*
D03*
Y220079D02*
D03*
Y214173D02*
D03*
X109921D02*
D03*
Y220079D02*
D03*
Y225984D02*
D03*
Y231890D02*
D03*
Y237795D02*
D03*
Y243701D02*
D03*
Y249606D02*
D03*
Y255512D02*
D03*
Y261417D02*
D03*
Y267323D02*
D03*
Y273228D02*
D03*
Y279134D02*
D03*
Y285039D02*
D03*
D45*
X158150Y207283D02*
D03*
X152244D02*
D03*
X146339D02*
D03*
X140433D02*
D03*
X134528D02*
D03*
X128622D02*
D03*
X122717D02*
D03*
X116811D02*
D03*
D46*
X50591Y152756D02*
D03*
X56496D02*
D03*
X99409Y116142D02*
D03*
X105315D02*
D03*
X79724D02*
D03*
X85630D02*
D03*
X80315Y158268D02*
D03*
X74409D02*
D03*
X31542Y287402D02*
D03*
X37448D02*
D03*
X43150Y11496D02*
D03*
X37244D02*
D03*
Y5591D02*
D03*
X43150D02*
D03*
D47*
X15991Y273622D02*
D03*
X52999D02*
D03*
D48*
X18583Y113721D02*
D03*
D49*
X46850Y122716D02*
D03*
Y104724D02*
D03*
D50*
X8051Y68583D02*
D03*
X33248D02*
D03*
D51*
X34843Y200787D02*
D03*
Y203937D02*
D03*
Y207087D02*
D03*
Y210236D02*
D03*
Y213386D02*
D03*
Y216535D02*
D03*
Y219685D02*
D03*
Y222835D02*
D03*
Y225984D02*
D03*
Y229134D02*
D03*
Y232283D02*
D03*
X79331Y232283D02*
D03*
Y229134D02*
D03*
Y225984D02*
D03*
Y222835D02*
D03*
Y219685D02*
D03*
Y216535D02*
D03*
Y213386D02*
D03*
Y210236D02*
D03*
Y207087D02*
D03*
Y203937D02*
D03*
Y200787D02*
D03*
D52*
X41339Y238779D02*
D03*
X44488D02*
D03*
X47638D02*
D03*
X50787D02*
D03*
X53937D02*
D03*
X57087D02*
D03*
X60236D02*
D03*
X63386D02*
D03*
X66535D02*
D03*
X69685D02*
D03*
X72835D02*
D03*
X72835Y194291D02*
D03*
X69685D02*
D03*
X66535D02*
D03*
X63386D02*
D03*
X60236D02*
D03*
X57087D02*
D03*
X53937D02*
D03*
X50787D02*
D03*
X47638D02*
D03*
X44488D02*
D03*
X41339D02*
D03*
D53*
X96850Y93799D02*
D03*
X88189D02*
D03*
X96850Y77461D02*
D03*
X88189D02*
D03*
D54*
X64803Y25583D02*
D03*
Y43299D02*
D03*
D55*
X48720Y250847D02*
D03*
X56004D02*
D03*
X30906Y258801D02*
D03*
X23622D02*
D03*
X44980D02*
D03*
X37697D02*
D03*
X94193Y160630D02*
D03*
X86910D02*
D03*
D56*
X98337Y150433D02*
D03*
X93337D02*
D03*
X88337D02*
D03*
X83337D02*
D03*
X98337Y131535D02*
D03*
X93337D02*
D03*
X88337D02*
D03*
X83337D02*
D03*
D57*
X18347Y32480D02*
D03*
Y27480D02*
D03*
Y22480D02*
D03*
Y17480D02*
D03*
X37244Y32480D02*
D03*
Y27480D02*
D03*
Y22480D02*
D03*
Y17480D02*
D03*
D58*
X12992Y195433D02*
D03*
X11811Y205433D02*
D03*
X12992Y215433D02*
D03*
X11811Y225433D02*
D03*
X12992Y235433D02*
D03*
X74646Y176378D02*
D03*
X84646D02*
D03*
X84055Y260870D02*
D03*
Y270869D02*
D03*
X33543Y152756D02*
D03*
X43543D02*
D03*
X33133Y168350D02*
D03*
X43133D02*
D03*
X70866Y269291D02*
D03*
X10059Y156496D02*
D03*
Y174213D02*
D03*
D59*
X11811Y245433D02*
D03*
X70866Y279291D02*
D03*
D60*
X135906Y16220D02*
D03*
D61*
Y36220D02*
D03*
D62*
X94646Y176378D02*
D03*
D63*
X109843Y4724D02*
D03*
X100000D02*
D03*
X90158D02*
D03*
X109843Y17717D02*
D03*
X100000D02*
D03*
X90158D02*
D03*
D64*
X19862Y151555D02*
D03*
Y179154D02*
D03*
D65*
X144488Y179292D02*
D03*
X137480Y175276D02*
D03*
X144488Y171261D02*
D03*
X137480Y167245D02*
D03*
X144488Y163229D02*
D03*
X137480Y159213D02*
D03*
X144488Y155198D02*
D03*
X137480Y151182D02*
D03*
X154488Y140198D02*
D03*
Y190198D02*
D03*
X144488Y104489D02*
D03*
X137480Y100473D02*
D03*
X144488Y96457D02*
D03*
X137480Y92442D02*
D03*
X144488Y88426D02*
D03*
X137480Y84410D02*
D03*
X144488Y80395D02*
D03*
X137480Y76379D02*
D03*
X154488Y65395D02*
D03*
Y115395D02*
D03*
D66*
X140984Y133190D02*
D03*
Y197206D02*
D03*
Y58387D02*
D03*
Y122402D02*
D03*
D67*
X13780Y305118D02*
D03*
X114173Y43307D02*
D03*
M02*
