M48
;Layer_Color=9474304
;FILE_FORMAT=2:5
INCH,LZ
;TYPE=PLATED
T1F00S00C0.01181
T2F00S00C0.02362
T3F00S00C0.03543
T4F00S00C0.03937
T5F00S00C0.05118
T6F00S00C0.05512
T7F00S00C0.06693
T8F00S00C0.13780
%
T01
X0118238Y0002362
X0123877
X0129516
X0135155
X0140794
X0146433
X0152072
X0157712
X0163351
X0166929Y0004852
Y0010491
Y001613
Y0021769
Y0027408
Y0033047
Y0038686
Y0044326
X0048661Y0041024
X0043543Y0042992
X0045118Y002248
X0049449
X0050625Y0002362
X0056264
X0061903
X0067542
X0073181
X0078821
X008446
X0044986
X0040157
X0033707
X0028068
X0022429
X001679
X0011151
X0005512
X0002362Y0008397
Y0014036
Y0019675
Y0025314
Y0030953
Y0036593
Y0042232
X0007717Y0015433
X0027402Y0017402
Y002248
X0043543Y0046535
X0045807Y0050866
X0051811
X006063Y0052173
X0058465Y004685
X0071457
X0069359Y0051968
X0088583Y0051181
X0048366Y0062677
X0002362Y0064788
Y0059149
Y005351
Y0047871
Y0070427
Y0076066
Y0081706
Y0087345
Y0092984
Y0098623
Y0104262
Y0109901
Y011554
Y0121179
Y0126819
Y0132458
Y0138097
Y0143736
Y0149375
Y0155014
Y0160653
Y0166293
Y0171932
Y0177571
Y018321
Y0188849
X0040157Y0185039
Y0177165
X0056496Y015748
X0074409Y0162402
X0075787Y0144488
X0074803Y0120079
Y0113189
Y0107283
Y0101378
Y0094488
X0064567Y010315
X0058465
X0089567Y0102362
X0050591Y0130709
Y0138819
X0079134Y0194882
X010315Y0185039
X0109449
X011063Y0181496
Y0175857
Y0170218
Y0164579
Y015894
Y01533
Y0147661
Y0142022
Y0136383
Y0130744
Y0125105
X0113779Y0127559
X011063Y0119466
Y0113827
Y0108187
Y0102548
Y0096909
Y009127
Y0085631
Y0079992
Y0074353
X0108268Y0067717
X0105221Y0063099
X009626Y0051181
X009252
Y0100394
X0095472Y0102362
X0098425Y0124409
X0102362Y0131496
X0098425Y0161417
X0094193Y0166143
X0126969
X0122835Y0154332
X0159764Y0155198
X0114173Y0185433
X0115748Y0190169
Y0195808
Y0201448
X0150127Y0055604
X0153937
X0166929
Y0049965
X0115748Y0213687
Y0219327
Y0224966
Y0230605
Y0236244
Y0241883
Y0247522
Y0253161
Y0258801
Y026444
Y0270079
Y0275718
Y0286741
X0104724Y0287402
X0100787
X0101468Y0283268
X0092913Y0287402
X0137598Y0283268
X0158268Y0285039
X0102362Y0243701
Y0208661
X0090945
X0025984Y0223228
X0023622Y0234646
X0002362Y0234136
Y0239775
Y0245415
Y0251054
Y0256693
Y0262323
Y0267962
Y0273601
Y027924
Y0284879
X0005512Y0287402
X0011024Y0287402
X001679
X0022429
X0027936Y0287402
X0034541Y0281496
X0034548Y0274129
Y0266142
X0049889Y025748
X0044094Y0250748
X0063386Y0262992
X0062205Y0287402
X0067716
X0073228
X0079067
X0084646
X0056496
X0050787
X0045177
X0040945
T02
X0070079Y0131535
X0058268Y0145669
X0079067Y0187008
X009685Y019685
X011811Y0143308
X009685Y0226022
X0056264Y025748
T03
X01Y0004724
X0109843
Y0017717
X01
X0090158
Y0004724
T04
X0010059Y0156496
Y0174213
X0012992Y0195433
X0033133Y016835
X0043133
X0043543Y0152756
X0033543
X0074646Y0176378
X0084646
X0094646
X013748Y0175276
Y0167245
Y0159213
Y0151182
X0144488Y0155198
Y0163229
Y0171261
Y0179292
Y0104489
Y0096457
Y0088426
Y0080395
X013748Y008441
Y0092442
Y0100473
Y0076379
X0084055Y026087
Y0270869
X0070866Y0269291
Y0279291
X0011811Y0245433
X0012992Y0235433
X0011811Y0225433
X0012992Y0215433
X0011811Y0205433
T05
X0019862Y0151555
Y0179154
T06
X0135906Y001622
Y003622
T07
X0140984Y0058387
Y0122402
Y013319
Y0197206
T08
X0114173Y0043307
X001378Y0305118
M30
