G04*
G04 #@! TF.GenerationSoftware,Altium Limited,Altium Designer,20.0.11 (256)*
G04*
G04 Layer_Physical_Order=1*
G04 Layer_Color=255*
%FSLAX25Y25*%
%MOIN*%
G70*
G01*
G75*
%ADD16R,0.02362X0.05709*%
%ADD17R,0.10039X0.06102*%
%ADD18R,0.03937X0.07480*%
%ADD19R,0.05512X0.04528*%
%ADD20R,0.10630X0.04921*%
%ADD21R,0.03543X0.02362*%
%ADD22R,0.04921X0.10630*%
%ADD23R,0.05906X0.03150*%
%ADD24R,0.03150X0.05906*%
%ADD25R,0.02362X0.03543*%
%ADD26R,0.21850X0.08071*%
%ADD27R,0.24410X0.22835*%
%ADD28R,0.11811X0.06299*%
%ADD29R,0.07087X0.08661*%
%ADD30O,0.06299X0.02165*%
%ADD31O,0.02165X0.06299*%
%ADD32R,0.05512X0.05906*%
%ADD33R,0.05906X0.11811*%
%ADD34R,0.04528X0.05512*%
%ADD35O,0.02362X0.08661*%
%ADD36O,0.08661X0.02362*%
%ADD68C,0.01968*%
%ADD69C,0.03937*%
%ADD70C,0.01181*%
%ADD71C,0.01575*%
%ADD72C,0.06890*%
%ADD73R,0.06890X0.06890*%
%ADD74R,0.09843X0.09843*%
%ADD75C,0.09843*%
%ADD76R,0.06890X0.06890*%
%ADD77C,0.05906*%
%ADD78C,0.07874*%
%ADD79C,0.06000*%
%ADD80C,0.11811*%
%ADD81C,0.27559*%
%ADD82C,0.02362*%
%ADD83C,0.03937*%
G36*
X168489Y287402D02*
X161299D01*
Y286846D01*
X159107D01*
X159036Y286894D01*
X158268Y287046D01*
X157500Y286894D01*
X156849Y286459D01*
X156413Y285807D01*
X156261Y285039D01*
X156413Y284271D01*
X156849Y283620D01*
X157500Y283185D01*
X158268Y283032D01*
X159036Y283185D01*
X159107Y283233D01*
X161299D01*
Y282677D01*
X168489D01*
Y281496D01*
X161299D01*
Y276772D01*
X168489D01*
Y275590D01*
X161299D01*
Y270866D01*
X168489D01*
Y269685D01*
X161299D01*
Y269129D01*
X157441D01*
X142025Y284545D01*
X141439Y284937D01*
X140748Y285074D01*
X138438D01*
X138366Y285122D01*
X137598Y285275D01*
X136830Y285122D01*
X136179Y284687D01*
X135744Y284036D01*
X135591Y283268D01*
X135744Y282500D01*
X136179Y281849D01*
X136830Y281413D01*
X137598Y281261D01*
X138366Y281413D01*
X138438Y281461D01*
X140000D01*
X155416Y266046D01*
X156002Y265654D01*
X156693Y265516D01*
X161299D01*
Y264961D01*
X168489D01*
Y263779D01*
X161299D01*
Y259055D01*
X168489D01*
Y257874D01*
X161299D01*
Y253150D01*
X168489D01*
Y251969D01*
X161299D01*
Y247244D01*
X168489D01*
Y246063D01*
X161299D01*
Y241339D01*
X168489D01*
Y240158D01*
X161299D01*
Y235433D01*
X168489D01*
Y234252D01*
X161299D01*
Y229528D01*
X168489D01*
Y228346D01*
X161299D01*
Y223622D01*
X168489D01*
Y222441D01*
X161299D01*
Y217717D01*
X168489D01*
Y216535D01*
X166024D01*
Y214173D01*
X165039D01*
Y213189D01*
X161299D01*
Y212598D01*
X159449D01*
Y211024D01*
X159134D01*
Y207283D01*
Y203543D01*
X160512D01*
Y207677D01*
X164370D01*
Y211811D01*
X168489D01*
X168489Y157068D01*
X167307Y156991D01*
X167252Y157413D01*
X166974Y158084D01*
X166533Y158659D01*
X151965Y173226D01*
X151390Y173668D01*
X150719Y173946D01*
X150000Y174040D01*
X147087D01*
X146398Y174569D01*
X146233Y174637D01*
Y175916D01*
X146398Y175984D01*
X147189Y176591D01*
X147796Y177382D01*
X148178Y178304D01*
X148308Y179292D01*
X148178Y180281D01*
X147796Y181202D01*
X147189Y181993D01*
X146398Y182600D01*
X145477Y182982D01*
X144488Y183112D01*
X143500Y182982D01*
X142578Y182600D01*
X141787Y181993D01*
X141180Y181202D01*
X140798Y180281D01*
X140668Y179292D01*
X140697Y179071D01*
X139590Y178431D01*
X139390Y178585D01*
X138469Y178966D01*
X137480Y179096D01*
X136492Y178966D01*
X135570Y178585D01*
X134779Y177978D01*
X134172Y177187D01*
X133790Y176265D01*
X133660Y175276D01*
X133662Y175262D01*
X133273Y175002D01*
X126285Y168014D01*
X126200Y167997D01*
X125549Y167562D01*
X125114Y166911D01*
X124961Y166143D01*
X125114Y165375D01*
X125549Y164723D01*
X126200Y164288D01*
X126969Y164136D01*
X127737Y164288D01*
X128388Y164723D01*
X128823Y165375D01*
X128840Y165459D01*
X133228Y169847D01*
X134172Y169155D01*
X133790Y168234D01*
X133731Y167782D01*
X122151Y156203D01*
X122067Y156186D01*
X121415Y155751D01*
X120980Y155100D01*
X120828Y154332D01*
X120980Y153563D01*
X121415Y152912D01*
X121786Y152664D01*
X122066Y151631D01*
X122066Y151273D01*
X116145Y145352D01*
X115703Y144776D01*
X115425Y144106D01*
X115331Y143387D01*
Y143308D01*
X115425Y142588D01*
X115703Y141918D01*
X116145Y141342D01*
X116720Y140901D01*
X117391Y140623D01*
X118110Y140528D01*
X118830Y140623D01*
X119500Y140901D01*
X120076Y141342D01*
X120335Y141681D01*
X134598Y155944D01*
X135252Y155637D01*
X135383Y155165D01*
X135368Y154335D01*
X134779Y153883D01*
X134172Y153092D01*
X133790Y152171D01*
X133660Y151182D01*
X133694Y150923D01*
X112502Y129731D01*
X112111Y129145D01*
X111973Y128454D01*
Y128399D01*
X111925Y128327D01*
X111773Y127559D01*
X111925Y126791D01*
X112360Y126140D01*
X113012Y125705D01*
X113779Y125552D01*
X114548Y125705D01*
X115199Y126140D01*
X115634Y126791D01*
X115787Y127559D01*
X115729Y127849D01*
X135700Y147820D01*
X136492Y147492D01*
X137480Y147362D01*
X138469Y147492D01*
X139390Y147874D01*
X140182Y148481D01*
X140789Y149272D01*
X141170Y150193D01*
X141300Y151182D01*
X141271Y151403D01*
X142378Y152043D01*
X142578Y151889D01*
X143500Y151508D01*
X144488Y151378D01*
X145477Y151508D01*
X146398Y151889D01*
X147189Y152497D01*
X147796Y153288D01*
X147839Y153391D01*
X158924D01*
X158996Y153343D01*
X159764Y153191D01*
X160532Y153343D01*
X160606Y153393D01*
X161787Y152762D01*
Y145267D01*
X160606Y144845D01*
X159943Y145652D01*
X158774Y146612D01*
X157440Y147325D01*
X155993Y147764D01*
X154488Y147912D01*
X152983Y147764D01*
X151536Y147325D01*
X150202Y146612D01*
X149033Y145652D01*
X148074Y144483D01*
X147361Y143150D01*
X146922Y141703D01*
X146774Y140198D01*
X146922Y138693D01*
X147079Y138175D01*
X146017Y137607D01*
X145740Y137945D01*
X144721Y138782D01*
X143558Y139403D01*
X142296Y139786D01*
X140984Y139915D01*
X139672Y139786D01*
X138411Y139403D01*
X137248Y138782D01*
X136229Y137945D01*
X135392Y136926D01*
X134771Y135764D01*
X134388Y134502D01*
X134259Y133190D01*
X134388Y131878D01*
X134771Y130616D01*
X135392Y129454D01*
X136229Y128434D01*
X136287Y128387D01*
Y127206D01*
X136229Y127158D01*
X135392Y126139D01*
X134771Y124976D01*
X134388Y123714D01*
X134259Y122402D01*
X134388Y121090D01*
X134771Y119829D01*
X135392Y118666D01*
X136229Y117647D01*
X137248Y116811D01*
X138411Y116189D01*
X139672Y115806D01*
X140984Y115677D01*
X142296Y115806D01*
X143558Y116189D01*
X144721Y116811D01*
X145740Y117647D01*
X146017Y117985D01*
X147079Y117417D01*
X146922Y116900D01*
X146774Y115395D01*
X146922Y113890D01*
X147361Y112442D01*
X148074Y111109D01*
X149033Y109940D01*
X150202Y108980D01*
X151536Y108267D01*
X152983Y107828D01*
X154488Y107680D01*
X155993Y107828D01*
X157440Y108267D01*
X158774Y108980D01*
X159888Y109895D01*
X160147Y109879D01*
X161171Y109574D01*
X161240Y109266D01*
X151211Y99237D01*
X147087D01*
X146398Y99766D01*
X146233Y99834D01*
Y101112D01*
X146398Y101181D01*
X147189Y101788D01*
X147796Y102579D01*
X148178Y103500D01*
X148308Y104489D01*
X148178Y105478D01*
X147796Y106399D01*
X147189Y107190D01*
X146398Y107797D01*
X145477Y108179D01*
X144488Y108309D01*
X143500Y108179D01*
X142578Y107797D01*
X141787Y107190D01*
X141180Y106399D01*
X140798Y105478D01*
X140668Y104489D01*
X140697Y104268D01*
X139590Y103628D01*
X139390Y103782D01*
X138469Y104163D01*
X137480Y104293D01*
X136492Y104163D01*
X135570Y103782D01*
X134779Y103174D01*
X134172Y102383D01*
X133790Y101462D01*
X133660Y100473D01*
X133790Y99485D01*
X134172Y98563D01*
X134779Y97772D01*
X135570Y97165D01*
X135735Y97097D01*
Y95818D01*
X135570Y95750D01*
X134779Y95143D01*
X134172Y94352D01*
X133790Y93431D01*
X133660Y92442D01*
X133790Y91453D01*
X134172Y90532D01*
X134779Y89741D01*
X135570Y89134D01*
X135735Y89065D01*
Y87787D01*
X135570Y87719D01*
X134779Y87112D01*
X134571Y86841D01*
X134516Y86818D01*
X133940Y86376D01*
X124933Y77369D01*
X124492Y76794D01*
X124214Y76123D01*
X124119Y75404D01*
Y57747D01*
X124214Y57027D01*
X124492Y56357D01*
X124933Y55781D01*
X137899Y42816D01*
X137273Y41771D01*
X137025Y41846D01*
X135906Y41957D01*
X134786Y41846D01*
X133710Y41520D01*
X132719Y40990D01*
X131849Y40277D01*
X131136Y39407D01*
X130606Y38416D01*
X130279Y37340D01*
X130169Y36220D01*
X130279Y35101D01*
X130606Y34025D01*
X131136Y33034D01*
X131849Y32164D01*
X132719Y31451D01*
X133710Y30921D01*
X134786Y30594D01*
X135906Y30484D01*
X137025Y30594D01*
X138101Y30921D01*
X139092Y31451D01*
X139962Y32164D01*
X140675Y33034D01*
X141205Y34025D01*
X141315Y34387D01*
X142496Y34212D01*
Y30679D01*
X140581Y28764D01*
X120288D01*
X120013Y29945D01*
X121472Y30665D01*
X123060Y31726D01*
X124496Y32985D01*
X125755Y34420D01*
X126816Y36008D01*
X127660Y37721D01*
X128274Y39529D01*
X128647Y41402D01*
X128771Y43307D01*
X128647Y45213D01*
X128274Y47085D01*
X127660Y48894D01*
X126816Y50606D01*
X125755Y52194D01*
X124496Y53630D01*
X123060Y54889D01*
X121472Y55949D01*
X119760Y56794D01*
X117952Y57408D01*
X116079Y57780D01*
X114173Y57905D01*
X112268Y57780D01*
X110395Y57408D01*
X108587Y56794D01*
X106874Y55949D01*
X105286Y54889D01*
X103851Y53630D01*
X102592Y52194D01*
X101531Y50606D01*
X100686Y48894D01*
X100073Y47085D01*
X99700Y45213D01*
X99575Y43307D01*
X99700Y41402D01*
X100073Y39529D01*
X100686Y37721D01*
X101531Y36008D01*
X102592Y34420D01*
X103851Y32985D01*
X104174Y32701D01*
X103730Y31520D01*
X99380D01*
X97244Y33656D01*
Y37008D01*
X91732D01*
Y32661D01*
X91708Y32480D01*
X91732Y32300D01*
Y27953D01*
X94329D01*
X94582Y27583D01*
X93959Y26402D01*
X86682D01*
X85457Y27627D01*
Y32480D01*
X85433Y32661D01*
Y37008D01*
X79921D01*
Y32661D01*
X79897Y32480D01*
Y26476D01*
X79992Y25756D01*
X80270Y25086D01*
X80712Y24510D01*
X83565Y21656D01*
X84141Y21215D01*
X84811Y20937D01*
X85531Y20842D01*
X86353D01*
X86935Y19661D01*
X86891Y19603D01*
X86514Y18693D01*
X86385Y17717D01*
X86514Y16740D01*
X86891Y15830D01*
X87177Y15457D01*
X86647Y14276D01*
X78092D01*
Y14492D01*
X66675D01*
X66478Y14492D01*
X65494D01*
X65297Y14492D01*
X61185D01*
Y18890D01*
X63048D01*
X63228Y18866D01*
X63819D01*
X63999Y18890D01*
X68543D01*
Y32276D01*
X61063D01*
Y25102D01*
X59557D01*
X55214Y29446D01*
X54638Y29888D01*
X53967Y30165D01*
X53248Y30260D01*
X52362D01*
Y30610D01*
X45276D01*
Y29287D01*
X41234D01*
X41162Y29335D01*
X40943Y29378D01*
Y30582D01*
X41162Y30626D01*
X41813Y31061D01*
X42248Y31712D01*
X42401Y32480D01*
X42248Y33248D01*
X41813Y33900D01*
X41162Y34335D01*
X40394Y34487D01*
X36790D01*
Y34741D01*
X36652Y35432D01*
X36261Y36018D01*
X33620Y38659D01*
X33034Y39051D01*
X32342Y39188D01*
X27870D01*
X27198Y40005D01*
X27642Y41043D01*
X30020D01*
X30217Y41043D01*
X31201D01*
X31398Y41043D01*
X36024D01*
Y44882D01*
Y48720D01*
X31398D01*
X31201Y48720D01*
X30217D01*
X30020Y48720D01*
X18602D01*
Y46472D01*
X11260D01*
Y47717D01*
X9523D01*
Y50413D01*
X9385Y51105D01*
X8994Y51691D01*
X7456Y53228D01*
X7651Y54409D01*
X34685D01*
Y63465D01*
X37579D01*
Y65803D01*
X42264D01*
Y65236D01*
X46689D01*
X46919Y64055D01*
X46512Y63445D01*
X46359Y62677D01*
X46512Y61909D01*
X46919Y61299D01*
X46871Y61052D01*
X46527Y60118D01*
X42264D01*
Y57854D01*
X54469D01*
Y60118D01*
X50205D01*
X49861Y61052D01*
X49813Y61299D01*
X50220Y61909D01*
X50373Y62677D01*
X50220Y63445D01*
X49813Y64055D01*
X50044Y65236D01*
X54469D01*
Y66197D01*
X58150D01*
X58869Y66291D01*
X59539Y66569D01*
X60115Y67011D01*
X72044Y78940D01*
X72486Y79516D01*
X72764Y80186D01*
X72858Y80905D01*
Y118110D01*
X72764Y118830D01*
X72486Y119500D01*
X72044Y120076D01*
X69879Y122241D01*
X69303Y122683D01*
X68633Y122960D01*
X67913Y123055D01*
X67520D01*
Y124016D01*
X67093D01*
Y128959D01*
X67648Y129291D01*
X68274Y129446D01*
X68689Y129128D01*
X69359Y128850D01*
X70079Y128756D01*
X72244D01*
Y128484D01*
X79331D01*
Y129729D01*
X81330D01*
Y128386D01*
X81482Y127618D01*
X81917Y126967D01*
X82569Y126532D01*
X83337Y126379D01*
X84105Y126532D01*
X84756Y126967D01*
X86192Y127058D01*
X86530Y126694D01*
Y124873D01*
X85866Y124209D01*
X82708D01*
X82017Y124071D01*
X81431Y123680D01*
X78447Y120696D01*
X78056Y120110D01*
X77918Y119419D01*
Y118701D01*
X77756D01*
Y113583D01*
X77918D01*
Y112894D01*
X78056Y112202D01*
X78447Y111616D01*
X78463Y111601D01*
X78131Y110338D01*
X78089Y110304D01*
X77543Y109939D01*
X76479Y108874D01*
X76087Y108288D01*
X75950Y107597D01*
Y96909D01*
X76087Y96218D01*
X76479Y95632D01*
X79589Y92522D01*
X80174Y92130D01*
X80866Y91993D01*
X84646D01*
Y90059D01*
X85630D01*
Y81201D01*
X84646D01*
Y73721D01*
X86973D01*
Y71063D01*
X86811D01*
Y63779D01*
X88477D01*
X90400Y61857D01*
X90551Y61756D01*
Y59547D01*
X94488D01*
Y61387D01*
X104241D01*
X104453Y61244D01*
X105221Y61092D01*
X105990Y61244D01*
X106641Y61680D01*
X107076Y62331D01*
X107229Y63099D01*
X107076Y63867D01*
X106697Y64434D01*
X106794Y64866D01*
X107125Y65615D01*
X107865D01*
X108556Y65752D01*
X108589Y65774D01*
X109036Y65863D01*
X109687Y66298D01*
X110122Y66949D01*
X110275Y67717D01*
X110122Y68485D01*
X109687Y69137D01*
X109036Y69572D01*
X108268Y69725D01*
X107500Y69572D01*
X106985Y69228D01*
X98228D01*
Y71063D01*
X98066D01*
Y73721D01*
X100394D01*
Y81201D01*
X99410D01*
Y90059D01*
X100394D01*
Y91993D01*
X103642D01*
X104333Y92130D01*
X104919Y92522D01*
X108561Y96164D01*
X108952Y96750D01*
X109090Y97441D01*
Y107283D01*
X108952Y107975D01*
X108561Y108561D01*
X107183Y109939D01*
X106824Y110178D01*
X106550Y111123D01*
X106525Y111549D01*
X106592Y111616D01*
X106984Y112202D01*
X107121Y112894D01*
Y113583D01*
X107283D01*
Y118701D01*
X106924D01*
X106787Y119392D01*
X106395Y119978D01*
X104722Y121651D01*
X104136Y122043D01*
X103445Y122180D01*
X98681D01*
X95143Y125719D01*
Y127546D01*
X95191Y127618D01*
X95235Y127837D01*
X96439D01*
X96482Y127618D01*
X96917Y126967D01*
X97352Y126676D01*
Y131535D01*
Y136395D01*
X96917Y136104D01*
X96482Y135453D01*
X96439Y135234D01*
X95235D01*
X95191Y135453D01*
X94756Y136104D01*
X94105Y136539D01*
X93337Y136692D01*
X92569Y136539D01*
X91917Y136104D01*
X91482Y135453D01*
X91439Y135234D01*
X90235D01*
X90191Y135453D01*
X89756Y136104D01*
X89105Y136539D01*
X88337Y136692D01*
X87569Y136539D01*
X86917Y136104D01*
X86482Y135453D01*
X86439Y135234D01*
X85234D01*
X85191Y135453D01*
X84756Y136104D01*
X84105Y136539D01*
X83337Y136692D01*
X82569Y136539D01*
X81917Y136104D01*
X81482Y135453D01*
X81330Y134685D01*
Y133342D01*
X79331D01*
Y134587D01*
X72244D01*
Y134315D01*
X70079D01*
X69359Y134220D01*
X68689Y133943D01*
X68305Y133648D01*
X67269Y134065D01*
X67184Y135202D01*
X70863Y138881D01*
X71063Y139141D01*
X72244Y138746D01*
Y135768D01*
X74803D01*
Y138819D01*
Y141870D01*
X72858D01*
X72244Y141870D01*
X71677Y142816D01*
Y154844D01*
X72441Y155709D01*
X76378D01*
Y160827D01*
X76378D01*
X76338Y162008D01*
X76416Y162402D01*
X76304Y162968D01*
X76703Y163731D01*
X77030Y164149D01*
X79459D01*
X81600Y162008D01*
X81111Y160827D01*
X78346D01*
Y155709D01*
X80887D01*
X81788Y154808D01*
X81482Y154351D01*
X81330Y153583D01*
Y147283D01*
X81482Y146515D01*
X81917Y145864D01*
X82569Y145429D01*
X83337Y145276D01*
X84105Y145429D01*
X84756Y145864D01*
X85191Y146515D01*
X85234Y146734D01*
X86439D01*
X86482Y146515D01*
X86917Y145864D01*
X87569Y145429D01*
X88337Y145276D01*
X89105Y145429D01*
X89756Y145864D01*
X90191Y146515D01*
X90235Y146734D01*
X91439D01*
X91482Y146515D01*
X91917Y145864D01*
X92352Y145574D01*
Y150433D01*
X94321D01*
Y145574D01*
X94756Y145864D01*
X95191Y146515D01*
X95235Y146734D01*
X96439D01*
X96482Y146515D01*
X96917Y145864D01*
X97569Y145429D01*
X98337Y145276D01*
X99105Y145429D01*
X99756Y145864D01*
X100191Y146515D01*
X100344Y147283D01*
Y153583D01*
X100191Y154351D01*
X99756Y155002D01*
X100440Y155943D01*
X100698Y156201D01*
X104921D01*
Y160138D01*
X99803D01*
Y159241D01*
X99686Y159163D01*
X98425Y157902D01*
X97244Y158391D01*
Y159646D01*
X91142D01*
Y157087D01*
X91444D01*
X91787Y156600D01*
X92000Y155905D01*
X91743Y155520D01*
X91680Y155203D01*
X90764Y154800D01*
X90425Y154788D01*
X90068Y155144D01*
X89930Y155835D01*
X89883Y155905D01*
X89961Y157087D01*
X89961D01*
Y164173D01*
X87297D01*
X82576Y168895D01*
X82000Y169336D01*
X81330Y169614D01*
X80610Y169709D01*
X71711D01*
X70992Y169614D01*
X70321Y169336D01*
X69746Y168895D01*
X66953Y166102D01*
X66870Y166104D01*
X65772Y166509D01*
Y180935D01*
X69065Y184228D01*
X79067D01*
X79787Y184323D01*
X80457Y184601D01*
X81033Y185042D01*
X81475Y185618D01*
X81752Y186288D01*
X81839Y186947D01*
X81859Y187017D01*
X82933Y187812D01*
X83241Y187702D01*
Y180377D01*
X82511Y180075D01*
X81627Y179396D01*
X80949Y178512D01*
X80522Y177483D01*
X80377Y176378D01*
X80522Y175273D01*
X80949Y174244D01*
X81627Y173359D01*
X82511Y172681D01*
X83541Y172255D01*
X84646Y172109D01*
X85751Y172255D01*
X86780Y172681D01*
X87664Y173359D01*
X88343Y174244D01*
X88769Y175273D01*
X88915Y176378D01*
X88769Y177483D01*
X88343Y178512D01*
X87664Y179396D01*
X86780Y180075D01*
X86051Y180377D01*
Y187944D01*
X86886Y188779D01*
X87721Y188779D01*
X88556Y187944D01*
Y187795D01*
X88663Y187258D01*
X88967Y186802D01*
X92788Y182981D01*
Y180610D01*
X90413D01*
Y172146D01*
X98878D01*
Y180610D01*
X95598D01*
Y183563D01*
X95491Y184101D01*
X95186Y184556D01*
X92197Y187546D01*
X92504Y188630D01*
X93597Y188986D01*
X100957Y181626D01*
Y166043D01*
X99803D01*
Y162106D01*
X104921D01*
Y166043D01*
X103767D01*
Y182208D01*
X103660Y182745D01*
X103356Y183201D01*
X100730Y185827D01*
X101219Y187008D01*
X105295D01*
Y189272D01*
X100177D01*
Y188050D01*
X98996Y187561D01*
X94909Y191648D01*
Y193452D01*
X96090Y194182D01*
X96131Y194165D01*
X96850Y194071D01*
X97570Y194165D01*
X98240Y194443D01*
X98816Y194885D01*
X99258Y195460D01*
X99535Y196131D01*
X99630Y196850D01*
Y197822D01*
X100406Y198598D01*
X105787D01*
X105968Y198622D01*
X112382D01*
Y205118D01*
X105968D01*
X105787Y205142D01*
X100364D01*
X99630Y205876D01*
Y207597D01*
X100061Y207748D01*
X100811Y207794D01*
X101085Y207384D01*
X101671Y206993D01*
X102362Y206855D01*
X103053Y206993D01*
X103639Y207384D01*
X104031Y207970D01*
X104169Y208661D01*
Y210544D01*
X105905D01*
Y210744D01*
X106181Y211811D01*
X110236D01*
Y207677D01*
X114449D01*
Y203543D01*
X119173D01*
Y211024D01*
X115157D01*
Y212598D01*
X113661D01*
Y213189D01*
X109921D01*
Y214173D01*
X108937D01*
Y216535D01*
X107150D01*
X106366Y217491D01*
X106409Y217717D01*
X107041Y217717D01*
X113661D01*
Y222441D01*
X107474D01*
X107238Y222972D01*
X107590Y223622D01*
X113661D01*
Y228346D01*
X108166D01*
X107277Y229302D01*
X107312Y229528D01*
X113661D01*
Y234252D01*
X107865D01*
X107466Y234695D01*
X107880Y235433D01*
X113661D01*
Y240158D01*
X107590D01*
X107270Y240748D01*
X107590Y241339D01*
X113661D01*
Y246063D01*
X106181D01*
Y243015D01*
X105905Y241948D01*
X105253Y241948D01*
X103347D01*
Y238897D01*
X101378D01*
Y241948D01*
X99578D01*
X98819Y242815D01*
X98060Y242815D01*
X93701D01*
Y242815D01*
X93504D01*
Y242815D01*
X88386D01*
Y242815D01*
X87992D01*
Y242815D01*
X83661D01*
X82874Y242815D01*
X81693Y242815D01*
X77362D01*
Y240274D01*
X76871Y239783D01*
X74741D01*
Y240846D01*
X74596Y241576D01*
X74183Y242195D01*
X73564Y242608D01*
X72923Y242736D01*
X72704Y243077D01*
X72385Y243868D01*
X76181Y247664D01*
X77362Y247175D01*
Y244783D01*
X82480D01*
Y244783D01*
X82874D01*
Y244783D01*
X87205D01*
X87992Y244783D01*
Y244783D01*
X88386D01*
Y244783D01*
X93504D01*
Y244783D01*
X93701D01*
Y244783D01*
X98819D01*
Y248721D01*
X97665D01*
Y249971D01*
X105000Y257306D01*
X106181Y256817D01*
Y253150D01*
X113661D01*
Y257874D01*
X108079D01*
X107774Y258548D01*
X108252Y259055D01*
X113661D01*
Y263779D01*
X107667D01*
X107375Y264370D01*
X107667Y264961D01*
X113661D01*
Y269685D01*
X106181D01*
Y269433D01*
X105604Y268972D01*
X105139Y268824D01*
X104161Y269499D01*
Y271465D01*
X104519Y271823D01*
X106181D01*
Y270866D01*
X113661D01*
Y275590D01*
X107707D01*
X107121Y276616D01*
X107213Y276772D01*
X113661D01*
Y281496D01*
X109114D01*
X108557Y282538D01*
X108650Y282677D01*
X113661D01*
Y287402D01*
X106181D01*
Y285333D01*
X104586Y283738D01*
X103356Y284028D01*
X103279Y284101D01*
X102887Y284687D01*
X102236Y285122D01*
X101468Y285275D01*
X101451Y285272D01*
X100695Y286028D01*
X100240Y286332D01*
X99702Y286439D01*
X99409D01*
Y287008D01*
X94291D01*
Y286392D01*
X94017Y286337D01*
X93561Y286033D01*
X92870Y285342D01*
X91689Y285831D01*
Y286811D01*
X86571D01*
Y286247D01*
X82284D01*
X81746Y286140D01*
X81290Y285836D01*
X76279Y280825D01*
X75098Y281008D01*
Y283524D01*
X66634D01*
Y275059D01*
X73111D01*
X74335Y273836D01*
X74299Y273481D01*
X73065Y272949D01*
X73045Y272954D01*
X73001Y272988D01*
X71971Y273415D01*
X70866Y273560D01*
X69761Y273415D01*
X68732Y272988D01*
X67848Y272310D01*
X67169Y271426D01*
X66743Y270396D01*
X66597Y269291D01*
X66743Y268186D01*
X67169Y267157D01*
X67848Y266273D01*
X68732Y265595D01*
X69060Y265459D01*
Y253957D01*
X68110Y253007D01*
X66929Y253497D01*
Y253898D01*
X60805D01*
X60773Y253936D01*
X60635Y254307D01*
X61198Y255079D01*
X62402D01*
Y258130D01*
Y261181D01*
X59842D01*
Y259129D01*
X58671Y258870D01*
X58230Y259446D01*
X57654Y259888D01*
X56983Y260165D01*
X56264Y260260D01*
X55545Y260165D01*
X54874Y259888D01*
X54299Y259446D01*
X53857Y258870D01*
X53579Y258200D01*
X53484Y257480D01*
Y254390D01*
X52953D01*
Y247337D01*
X52619Y247328D01*
X51772Y248151D01*
Y249862D01*
X45669D01*
Y248412D01*
X44488Y247923D01*
X39200Y253210D01*
Y255257D01*
X40748D01*
Y262344D01*
X39200D01*
Y268476D01*
X40105Y269381D01*
X41286Y268977D01*
Y268799D01*
X64711D01*
Y278445D01*
X41286D01*
Y278445D01*
X40105Y278404D01*
X38853Y279657D01*
Y284842D01*
X39416D01*
Y288976D01*
X168489D01*
Y287402D01*
D02*
G37*
G36*
X35479Y284842D02*
X36043D01*
Y279075D01*
X36150Y278537D01*
X36454Y278081D01*
X39154Y275382D01*
X39610Y275077D01*
X40147Y274970D01*
X41286D01*
Y272476D01*
X39809D01*
X39271Y272369D01*
X38815Y272065D01*
X36802Y270051D01*
X36497Y269596D01*
X36390Y269058D01*
Y262344D01*
X34646D01*
Y262344D01*
X33957D01*
Y262344D01*
X32331D01*
Y269290D01*
X32224Y269828D01*
X31920Y270283D01*
X30138Y272065D01*
X29682Y272369D01*
X29145Y272476D01*
X27703D01*
Y274970D01*
X28783D01*
X29321Y275077D01*
X29777Y275382D01*
X32536Y278140D01*
X32840Y278596D01*
X32947Y279134D01*
Y284842D01*
X33511D01*
Y288976D01*
X35479D01*
Y284842D01*
D02*
G37*
G36*
X86571Y282874D02*
X91150Y282874D01*
X91679Y281890D01*
X91150Y280906D01*
X90114D01*
Y278937D01*
Y276969D01*
X91689D01*
X91804Y275835D01*
Y272933D01*
X90650D01*
Y271071D01*
X90628Y270965D01*
X90650Y270858D01*
Y268996D01*
X95445D01*
Y267028D01*
X90650D01*
Y263091D01*
X89807Y262274D01*
X88054D01*
X87752Y263004D01*
X87074Y263888D01*
X86190Y264566D01*
X85160Y264993D01*
X84055Y265138D01*
X82950Y264993D01*
X81921Y264566D01*
X81037Y263888D01*
X80358Y263004D01*
X79932Y261974D01*
X79786Y260870D01*
X79932Y259765D01*
X80358Y258735D01*
X81037Y257851D01*
X81198Y257727D01*
X81179Y257190D01*
X80986Y256401D01*
X80699Y256210D01*
X78543Y254054D01*
X77362Y254543D01*
Y257283D01*
X72672D01*
Y259252D01*
X77362D01*
Y263189D01*
X76208D01*
Y264500D01*
X77371Y265663D01*
X77676Y266119D01*
X77783Y266657D01*
Y273780D01*
X77676Y274317D01*
X77371Y274773D01*
X75439Y276705D01*
X75921Y277886D01*
X76732D01*
X77270Y277993D01*
X77726Y278298D01*
X82865Y283438D01*
X86571D01*
Y282874D01*
D02*
G37*
G36*
X29574Y284842D02*
X30137D01*
Y279716D01*
X28879Y278458D01*
X27703Y278445D01*
Y278445D01*
X4278D01*
Y268799D01*
X27703D01*
Y268799D01*
X28847Y268980D01*
X29521Y268444D01*
Y262344D01*
X27854D01*
Y255257D01*
X29521D01*
Y252742D01*
X29628Y252204D01*
X29933Y251749D01*
X31288Y250394D01*
X30798Y249213D01*
X24918D01*
X24803Y249213D01*
X24803Y249213D01*
X23819Y249016D01*
Y249016D01*
X18701D01*
Y248255D01*
X18504D01*
X17966Y248148D01*
X17511Y247844D01*
X17224Y247558D01*
X16043Y248047D01*
Y249665D01*
X7579D01*
Y241201D01*
X16043D01*
Y244028D01*
X17087D01*
X17624Y244135D01*
X18080Y244440D01*
X18719Y245079D01*
X23652D01*
X24665Y244269D01*
Y243518D01*
X23819Y243110D01*
X23622Y243110D01*
X18701D01*
Y239173D01*
X19855D01*
Y237590D01*
X19103Y236838D01*
X16991D01*
X16689Y237567D01*
X16011Y238452D01*
X15126Y239130D01*
X14097Y239556D01*
X12992Y239702D01*
X11887Y239556D01*
X10858Y239130D01*
X9974Y238452D01*
X9295Y237567D01*
X8869Y236538D01*
X8860Y236467D01*
X8610Y236364D01*
X8034Y235922D01*
X1984Y229872D01*
X1935Y229872D01*
X803Y230276D01*
Y288976D01*
X29574D01*
Y284842D01*
D02*
G37*
G36*
X34166Y238966D02*
Y237659D01*
X34273Y237121D01*
X34577Y236665D01*
X35871Y235371D01*
X35382Y234190D01*
X32776D01*
X32046Y234045D01*
X31512Y233688D01*
X26811D01*
X26274Y233581D01*
X25818Y233277D01*
X17165Y224624D01*
X16046Y225175D01*
X16080Y225433D01*
X15934Y226538D01*
X15508Y227568D01*
X14830Y228452D01*
X13945Y229130D01*
X12916Y229556D01*
X12072Y229667D01*
X11568Y230330D01*
X11373Y230836D01*
X11673Y231370D01*
X11708Y231384D01*
X11887Y231310D01*
X12992Y231164D01*
X14097Y231310D01*
X15126Y231736D01*
X16011Y232415D01*
X16689Y233299D01*
X16991Y234028D01*
X19685D01*
X20223Y234135D01*
X20678Y234440D01*
X22253Y236014D01*
X22558Y236470D01*
X22665Y237008D01*
Y238633D01*
X23819Y239173D01*
X24803Y238633D01*
Y235827D01*
X27362D01*
Y238878D01*
X29331D01*
Y235827D01*
X31890D01*
Y239031D01*
X33012Y239173D01*
X34166Y238966D01*
D02*
G37*
G36*
X82480Y238878D02*
X83193D01*
X84028Y238043D01*
Y235837D01*
X82192Y234001D01*
X82127Y234045D01*
X81398Y234190D01*
X77264D01*
X76534Y234045D01*
X75915Y233632D01*
X75502Y233013D01*
X75357Y232283D01*
X75502Y231554D01*
X75915Y230935D01*
Y230482D01*
X75502Y229864D01*
X75357Y229134D01*
X75502Y228404D01*
X75915Y227786D01*
Y227332D01*
X75502Y226714D01*
X75357Y225984D01*
X75502Y225255D01*
X75915Y224636D01*
Y224183D01*
X75502Y223564D01*
X75357Y222835D01*
X75469Y222271D01*
X75295Y221822D01*
X74760Y221090D01*
X54126D01*
X41569Y233647D01*
X41958Y234929D01*
X42068Y234951D01*
X42687Y235364D01*
X43140D01*
X43758Y234951D01*
X44488Y234806D01*
X45218Y234951D01*
X46063Y235277D01*
X46908Y234951D01*
X47638Y234806D01*
X48368Y234951D01*
X49213Y235277D01*
X49803Y235049D01*
Y238780D01*
X51772D01*
Y235049D01*
X52362Y235277D01*
X53207Y234951D01*
X53937Y234806D01*
X54667Y234951D01*
X55512Y235277D01*
X56357Y234951D01*
X57087Y234806D01*
X57816Y234951D01*
X58661Y235277D01*
X59507Y234951D01*
X60236Y234806D01*
X60966Y234951D01*
X61811Y235277D01*
X62656Y234951D01*
X63386Y234806D01*
X64116Y234951D01*
X64961Y235277D01*
X65806Y234951D01*
X66535Y234806D01*
X67265Y234951D01*
X68110Y235277D01*
X68955Y234951D01*
X69685Y234806D01*
X70415Y234951D01*
X71260Y235277D01*
X72105Y234951D01*
X72835Y234806D01*
X73564Y234951D01*
X74183Y235364D01*
X74596Y235983D01*
X74741Y236713D01*
Y236973D01*
X77453D01*
X77991Y237080D01*
X78447Y237385D01*
X79940Y238878D01*
X82480Y238878D01*
D02*
G37*
G36*
X22441Y220358D02*
Y219587D01*
X25984D01*
Y217618D01*
X22441D01*
Y215551D01*
X25686D01*
X26210Y214370D01*
X22441D01*
Y208268D01*
X23205D01*
Y198789D01*
X19097Y194682D01*
X18149Y193734D01*
X17196Y194287D01*
X17122Y194377D01*
X17261Y195433D01*
X17116Y196538D01*
X16689Y197567D01*
X16011Y198452D01*
X15126Y199130D01*
X14097Y199556D01*
X12992Y199702D01*
X11887Y199556D01*
X10858Y199130D01*
X9974Y198452D01*
X9295Y197567D01*
X8869Y196538D01*
X8723Y195433D01*
X8862Y194377D01*
X8789Y194287D01*
X7835Y193734D01*
X6717Y194852D01*
Y203586D01*
X7898Y203821D01*
X8114Y203299D01*
X8793Y202415D01*
X9677Y201736D01*
X10706Y201310D01*
X11811Y201164D01*
X12916Y201310D01*
X13945Y201736D01*
X14830Y202415D01*
X15508Y203299D01*
X15934Y204328D01*
X16080Y205433D01*
X15939Y206502D01*
X19202Y209765D01*
X19507Y210221D01*
X19614Y210759D01*
Y217594D01*
X19515Y218089D01*
Y219103D01*
X21260Y220848D01*
X22441Y220358D01*
D02*
G37*
G36*
X52551Y218692D02*
X53007Y218387D01*
X53544Y218280D01*
X74760D01*
X75295Y217548D01*
X75469Y217099D01*
X75357Y216535D01*
X75502Y215806D01*
X75828Y214961D01*
X75600Y214370D01*
X79331D01*
Y212402D01*
X75672D01*
X75915Y212038D01*
Y211584D01*
X75502Y210966D01*
X75357Y210236D01*
X75502Y209507D01*
X75915Y208888D01*
Y208435D01*
X75502Y207816D01*
X75357Y207087D01*
X75502Y206357D01*
X75915Y205738D01*
Y205285D01*
X75502Y204667D01*
X75357Y203937D01*
X75502Y203207D01*
X75915Y202589D01*
Y202136D01*
X75502Y201517D01*
X75357Y200787D01*
X75502Y200058D01*
X75915Y199439D01*
X76534Y199026D01*
X77264Y198881D01*
X77926D01*
Y196442D01*
X77715Y196301D01*
X77280Y195650D01*
X77127Y194882D01*
X77280Y194114D01*
X77715Y193463D01*
X78366Y193028D01*
X79134Y192875D01*
X79902Y193028D01*
X80553Y193463D01*
X80988Y194114D01*
X81038Y194365D01*
X82087Y194685D01*
Y194685D01*
X87205D01*
Y194685D01*
X87402Y194685D01*
Y194685D01*
X92099D01*
Y192717D01*
X88386D01*
X87402Y192717D01*
X86221Y192717D01*
X82087D01*
Y189540D01*
X81428Y189186D01*
X80905Y189071D01*
X80457Y189415D01*
X79787Y189693D01*
X79067Y189788D01*
X74680D01*
X74352Y190507D01*
X74245Y190969D01*
X74596Y191495D01*
X74741Y192224D01*
Y196358D01*
X74596Y197088D01*
X74183Y197706D01*
X73564Y198120D01*
X72835Y198265D01*
X72105Y198120D01*
X71260Y197794D01*
X70415Y198120D01*
X69685Y198265D01*
X68955Y198120D01*
X68110Y197794D01*
X67265Y198120D01*
X66535Y198265D01*
X65806Y198120D01*
X64961Y197794D01*
X64116Y198120D01*
X63386Y198265D01*
X62656Y198120D01*
X61811Y197794D01*
X60966Y198120D01*
X60236Y198265D01*
X59507Y198120D01*
X58661Y197794D01*
X58071Y198022D01*
Y194291D01*
X56102D01*
Y198022D01*
X55512Y197794D01*
X54667Y198120D01*
X53937Y198265D01*
X53207Y198120D01*
X52362Y197794D01*
X51517Y198120D01*
X50787Y198265D01*
X50058Y198120D01*
X49213Y197794D01*
X48368Y198120D01*
X47638Y198265D01*
X46908Y198120D01*
X46063Y197794D01*
X45218Y198120D01*
X44488Y198265D01*
X43758Y198120D01*
X42913Y197794D01*
X42068Y198120D01*
X41339Y198265D01*
X40609Y198120D01*
X39990Y197706D01*
X39577Y197088D01*
X39432Y196358D01*
Y192224D01*
X39495Y191909D01*
Y191459D01*
X34060Y186024D01*
X31831D01*
Y182087D01*
X36949D01*
Y183804D01*
X40694Y187548D01*
X41732Y186917D01*
Y182087D01*
X48228D01*
Y183863D01*
X51536Y187170D01*
X53347D01*
Y175000D01*
X59031D01*
X59842Y175000D01*
X60212Y173972D01*
Y148449D01*
X46823D01*
X46422Y149630D01*
X46562Y149737D01*
X47240Y150621D01*
X47376Y150950D01*
X48622D01*
Y150197D01*
X52559D01*
Y155315D01*
X48622D01*
Y154562D01*
X47376D01*
X47240Y154890D01*
X46562Y155774D01*
X45678Y156453D01*
X44648Y156879D01*
X43543Y157025D01*
X42439Y156879D01*
X41409Y156453D01*
X40525Y155774D01*
X39846Y154890D01*
X39420Y153861D01*
X39274Y152756D01*
X39420Y151651D01*
X39846Y150621D01*
X40525Y149737D01*
X40665Y149630D01*
X40264Y148449D01*
X36362D01*
Y149584D01*
X36562Y149737D01*
X37240Y150621D01*
X37667Y151651D01*
X37812Y152756D01*
X37667Y153861D01*
X37240Y154890D01*
X36562Y155774D01*
X36362Y155927D01*
Y165606D01*
X36830Y166215D01*
X37256Y167245D01*
X37402Y168350D01*
X37256Y169455D01*
X36830Y170484D01*
X36151Y171368D01*
X35267Y172047D01*
X34238Y172473D01*
X33133Y172618D01*
X32220Y172498D01*
X29591Y175127D01*
Y186968D01*
X29496Y187688D01*
X29219Y188358D01*
X28777Y188934D01*
X24994Y192717D01*
X27950Y195672D01*
X28392Y196248D01*
X28669Y196918D01*
X28764Y197638D01*
Y208268D01*
X29528D01*
Y209593D01*
X29750Y209729D01*
X29879Y209746D01*
X31014Y209507D01*
X31427Y208888D01*
Y208435D01*
X31014Y207816D01*
X30869Y207087D01*
X31014Y206357D01*
X31427Y205738D01*
Y205285D01*
X31014Y204667D01*
X30869Y203937D01*
X31014Y203207D01*
X31427Y202589D01*
Y202136D01*
X31014Y201517D01*
X30869Y200787D01*
X31014Y200058D01*
X31427Y199439D01*
X32046Y199026D01*
X32776Y198881D01*
X36909D01*
X37639Y199026D01*
X38258Y199439D01*
X38671Y200058D01*
X38816Y200787D01*
X38671Y201517D01*
X38258Y202136D01*
Y202589D01*
X38671Y203207D01*
X38816Y203937D01*
X38671Y204667D01*
X38258Y205285D01*
Y205738D01*
X38671Y206357D01*
X38816Y207087D01*
X38671Y207816D01*
X38258Y208435D01*
Y208888D01*
X38671Y209507D01*
X38816Y210236D01*
X38671Y210966D01*
X38258Y211584D01*
Y212038D01*
X38671Y212656D01*
X38816Y213386D01*
X38671Y214116D01*
X38258Y214734D01*
Y215187D01*
X38501Y215551D01*
X34843D01*
Y217520D01*
X38501D01*
X38258Y217884D01*
Y218337D01*
X38671Y218955D01*
X38816Y219685D01*
X38671Y220415D01*
X38258Y221033D01*
Y221486D01*
X38671Y222105D01*
X38816Y222835D01*
X38671Y223564D01*
X38258Y224183D01*
Y224636D01*
X38671Y225255D01*
X38816Y225984D01*
X38671Y226714D01*
X38258Y227332D01*
Y227786D01*
X38671Y228404D01*
X38816Y229134D01*
X38671Y229864D01*
X38559Y230031D01*
X38865Y230910D01*
X40102Y231140D01*
X52551Y218692D01*
D02*
G37*
G36*
X7483Y186223D02*
X8059Y185782D01*
X8729Y185504D01*
X9449Y185409D01*
X16535D01*
X17255Y185504D01*
X17925Y185782D01*
X18501Y186223D01*
X21063Y188786D01*
X24032Y185817D01*
Y183313D01*
X24017Y183299D01*
X22851Y182813D01*
X22500Y183101D01*
X21679Y183539D01*
X20788Y183810D01*
X19862Y183901D01*
X18936Y183810D01*
X18045Y183539D01*
X17225Y183101D01*
X16505Y182510D01*
X15915Y181791D01*
X15476Y180970D01*
X15206Y180080D01*
X15115Y179154D01*
X15206Y178227D01*
X15476Y177337D01*
X15915Y176516D01*
X16505Y175797D01*
X17225Y175206D01*
X18045Y174768D01*
X18936Y174497D01*
X19862Y174406D01*
X20788Y174497D01*
X21679Y174768D01*
X22500Y175206D01*
X22851Y175494D01*
X24017Y175008D01*
X24032Y174994D01*
Y173976D01*
X24126Y173257D01*
X24404Y172586D01*
X24846Y172011D01*
X28918Y167938D01*
X29010Y167245D01*
X29436Y166215D01*
X30114Y165331D01*
X30803Y164803D01*
Y155988D01*
X30525Y155774D01*
X29846Y154890D01*
X29420Y153861D01*
X29274Y152756D01*
X29420Y151651D01*
X29846Y150621D01*
X30525Y149737D01*
X30803Y149524D01*
Y146472D01*
X23015D01*
X22550Y147517D01*
X22555Y147653D01*
X23219Y148198D01*
X23809Y148918D01*
X24248Y149738D01*
X24518Y150629D01*
X24610Y151555D01*
X24518Y152481D01*
X24248Y153372D01*
X23809Y154193D01*
X23219Y154912D01*
X22500Y155502D01*
X21679Y155941D01*
X20788Y156211D01*
X19862Y156302D01*
X18936Y156211D01*
X18045Y155941D01*
X17225Y155502D01*
X16505Y154912D01*
X15915Y154193D01*
X15476Y153372D01*
X15206Y152481D01*
X15115Y151555D01*
X15206Y150629D01*
X15476Y149738D01*
X15915Y148918D01*
X16505Y148198D01*
X17170Y147653D01*
X17174Y147517D01*
X16710Y146472D01*
X4858D01*
X4551Y146411D01*
X4291Y146237D01*
X4117Y145976D01*
X4056Y145669D01*
X4056Y73701D01*
X3720D01*
Y66119D01*
X3705Y66043D01*
Y52618D01*
X3843Y51927D01*
X4234Y51341D01*
X5910Y49665D01*
Y47717D01*
X4173D01*
Y41614D01*
X11260D01*
Y42859D01*
X18602D01*
Y41043D01*
X22147D01*
Y40534D01*
X22285Y39843D01*
X22677Y39257D01*
X25829Y36105D01*
X26415Y35713D01*
X27106Y35576D01*
X31594D01*
X32729Y34441D01*
X32675Y33900D01*
X32240Y33248D01*
X32087Y32480D01*
X32240Y31712D01*
X32675Y31061D01*
X33326Y30626D01*
X33546Y30582D01*
Y29378D01*
X33326Y29335D01*
X32675Y28899D01*
X32240Y28248D01*
X32087Y27480D01*
X32240Y26712D01*
X32675Y26061D01*
X33326Y25626D01*
X33546Y25583D01*
Y24378D01*
X33326Y24335D01*
X32675Y23900D01*
X32385Y23465D01*
X42104D01*
X41813Y23900D01*
X41721Y25336D01*
X42086Y25674D01*
X45276D01*
Y24508D01*
X52289D01*
X55626Y21171D01*
Y14492D01*
X53880D01*
Y12901D01*
X45118D01*
Y14055D01*
X41181D01*
Y9331D01*
X41181Y8150D01*
X41181Y7756D01*
Y6575D01*
X45118D01*
Y7756D01*
X45118Y8937D01*
X45984Y10091D01*
X53880D01*
Y6815D01*
X65297D01*
X65494Y6815D01*
X66478D01*
X66675Y6815D01*
X78092D01*
Y8716D01*
X87276D01*
X87677Y7535D01*
X87490Y7392D01*
X86891Y6611D01*
X86514Y5701D01*
X86385Y4724D01*
X86514Y3748D01*
X86891Y2838D01*
X87490Y2057D01*
X87585Y1984D01*
X87184Y803D01*
X803D01*
X803Y191318D01*
X1935Y191722D01*
X1984Y191723D01*
X7483Y186223D01*
D02*
G37*
G36*
X66118Y141998D02*
X62348Y138228D01*
X61906Y137652D01*
X61629Y136982D01*
X61534Y136262D01*
Y124016D01*
X58695D01*
X57969Y124741D01*
X57394Y125183D01*
X56723Y125461D01*
X56004Y125555D01*
X53543D01*
Y126654D01*
X40157D01*
Y118780D01*
X53543D01*
Y119996D01*
X54853D01*
X55315Y119534D01*
Y117520D01*
X64133D01*
X64314Y117496D01*
X66762D01*
X67299Y116959D01*
Y112402D01*
X55315D01*
Y109541D01*
X54174Y108400D01*
X53543Y108661D01*
Y108661D01*
X40157D01*
Y100787D01*
X53543D01*
Y101945D01*
X54429D01*
X55149Y102039D01*
X55449Y102164D01*
X55948Y102257D01*
X57028Y101756D01*
X57045Y101730D01*
X57696Y101295D01*
X58465Y101143D01*
X59233Y101295D01*
X59884Y101730D01*
X60319Y102382D01*
X60472Y103150D01*
X60319Y103918D01*
X60271Y103989D01*
Y105905D01*
X62761D01*
Y103989D01*
X62713Y103918D01*
X62560Y103150D01*
X62713Y102382D01*
X63148Y101730D01*
X63799Y101295D01*
X64567Y101143D01*
X65335Y101295D01*
X65986Y101730D01*
X66118Y101928D01*
X67299Y101569D01*
Y82057D01*
X56998Y71756D01*
X51713D01*
X51532Y71732D01*
X42264D01*
Y71362D01*
X37579D01*
Y73701D01*
X34685D01*
Y82534D01*
X34463Y82756D01*
X6535D01*
Y73701D01*
X4859D01*
X4858Y145669D01*
X66118Y145669D01*
Y141998D01*
D02*
G37*
G36*
X88976Y112795D02*
X96063D01*
Y114040D01*
X97441D01*
Y113583D01*
X97882D01*
X98819Y112992D01*
Y106890D01*
X103080D01*
X102556Y105709D01*
X98819D01*
Y103642D01*
X102362D01*
Y102657D01*
X103346D01*
Y99606D01*
X105477D01*
Y98189D01*
X102893Y95606D01*
X100394D01*
Y97539D01*
X93307D01*
Y96457D01*
X91732D01*
Y97539D01*
X84646D01*
Y95606D01*
X81614D01*
X79562Y97657D01*
Y99606D01*
X81693D01*
Y102657D01*
X82677D01*
Y103642D01*
X86221D01*
Y105709D01*
X82975D01*
X82451Y106890D01*
X86221D01*
Y112992D01*
X87157Y113583D01*
X87598D01*
Y114335D01*
X88976D01*
Y112795D01*
D02*
G37*
G36*
X149033Y59940D02*
X150202Y58980D01*
X151536Y58267D01*
X152983Y57828D01*
X154488Y57680D01*
X155993Y57828D01*
X156238Y57903D01*
X156865Y56858D01*
X151578Y51572D01*
X151136Y50996D01*
X150858Y50326D01*
X150764Y49606D01*
Y14537D01*
X146880Y10654D01*
X141614D01*
Y21929D01*
X130197D01*
Y10654D01*
X118110D01*
X117391Y10559D01*
X116720Y10281D01*
X116145Y9839D01*
X113809Y7504D01*
X112364D01*
X111729Y7991D01*
X110819Y8368D01*
X109843Y8497D01*
X108866Y8368D01*
X107956Y7991D01*
X107175Y7392D01*
X106576Y6611D01*
X106199Y5701D01*
X106070Y4724D01*
X106199Y3748D01*
X106576Y2838D01*
X107175Y2057D01*
X107270Y1984D01*
X106869Y803D01*
X102973D01*
X102572Y1984D01*
X102667Y2057D01*
X103267Y2838D01*
X103641Y3740D01*
X96359D01*
X96733Y2838D01*
X97333Y2057D01*
X97428Y1984D01*
X97027Y803D01*
X93131D01*
X92730Y1984D01*
X92825Y2057D01*
X93424Y2838D01*
X93801Y3748D01*
X93930Y4724D01*
X93801Y5701D01*
X93424Y6611D01*
X92825Y7392D01*
X92638Y7535D01*
X93039Y8716D01*
X93779D01*
X94499Y8811D01*
X95169Y9089D01*
X95745Y9531D01*
X100183Y13968D01*
X100976Y14073D01*
X101886Y14449D01*
X102667Y15049D01*
X103267Y15830D01*
X103644Y16740D01*
X103737Y17445D01*
X104441Y17830D01*
X104938Y17914D01*
X106117Y16735D01*
X106240Y16641D01*
X106576Y15830D01*
X107175Y15049D01*
X107956Y14449D01*
X108866Y14073D01*
X109843Y13944D01*
X110819Y14073D01*
X111729Y14449D01*
X112510Y15049D01*
X113110Y15830D01*
X113486Y16740D01*
X113615Y17717D01*
X113486Y18693D01*
X113110Y19603D01*
X112510Y20384D01*
X111729Y20983D01*
X110819Y21360D01*
X109843Y21489D01*
X109471Y21440D01*
X108900Y22087D01*
X109376Y23205D01*
X141732D01*
X142452Y23299D01*
X143122Y23577D01*
X143698Y24019D01*
X147241Y27562D01*
X147683Y28138D01*
X147960Y28808D01*
X148055Y29528D01*
Y39370D01*
X147961Y40089D01*
X147683Y40760D01*
X147241Y41336D01*
X136976Y51601D01*
X137687Y52560D01*
X138411Y52173D01*
X139672Y51791D01*
X140984Y51661D01*
X142296Y51791D01*
X143558Y52173D01*
X144721Y52795D01*
X145740Y53631D01*
X146576Y54650D01*
X147198Y55813D01*
X147580Y57075D01*
X147710Y58387D01*
X147580Y59699D01*
X147508Y59936D01*
X148570Y60504D01*
X149033Y59940D01*
D02*
G37*
G36*
X168489Y60255D02*
Y803D01*
X115335D01*
X115258Y1984D01*
X115680Y2039D01*
X116350Y2317D01*
X116926Y2759D01*
X119262Y5094D01*
X148031D01*
X148751Y5189D01*
X149421Y5467D01*
X149997Y5909D01*
X155509Y11420D01*
X155951Y11996D01*
X156228Y12666D01*
X156323Y13386D01*
Y48455D01*
X166533Y58664D01*
X166974Y59240D01*
X167252Y59911D01*
X167307Y60333D01*
X168489Y60255D01*
D02*
G37*
%LPC*%
G36*
X48031Y262344D02*
X45965D01*
Y259785D01*
X48031D01*
Y262344D01*
D02*
G37*
G36*
X43996D02*
X41929D01*
Y259785D01*
X43996D01*
Y262344D01*
D02*
G37*
G36*
X66929Y261181D02*
X64370D01*
Y259114D01*
X66929D01*
Y261181D01*
D02*
G37*
G36*
Y257146D02*
X64370D01*
Y255079D01*
X66929D01*
Y257146D01*
D02*
G37*
G36*
X48031Y257816D02*
X44980D01*
X41929D01*
Y255257D01*
X44912D01*
X45669Y254390D01*
X45669Y254076D01*
Y251831D01*
X48720D01*
X51772D01*
Y254390D01*
X48789D01*
X48031Y255257D01*
X48031Y255571D01*
Y257816D01*
D02*
G37*
G36*
X113661Y251969D02*
X106181D01*
Y247244D01*
X113661D01*
Y251969D01*
D02*
G37*
G36*
Y216535D02*
X110906D01*
Y215158D01*
X113661D01*
Y216535D01*
D02*
G37*
G36*
X164055D02*
X161299D01*
Y215158D01*
X164055D01*
Y216535D01*
D02*
G37*
G36*
X157165Y211024D02*
X155787D01*
Y208268D01*
X157165D01*
Y211024D01*
D02*
G37*
G36*
X148701D02*
X143976D01*
Y205655D01*
X142795Y204936D01*
Y211024D01*
X138071D01*
Y204522D01*
X136890Y205259D01*
Y211024D01*
X132165D01*
Y203543D01*
X135863D01*
X136295Y203543D01*
X136609Y202666D01*
X136034Y201723D01*
X135392Y200942D01*
X134771Y199779D01*
X134388Y198518D01*
X134259Y197206D01*
X134388Y195894D01*
X134771Y194632D01*
X135392Y193469D01*
X136229Y192450D01*
X137248Y191614D01*
X138411Y190992D01*
X139672Y190610D01*
X140984Y190480D01*
X142296Y190610D01*
X143558Y190992D01*
X144721Y191614D01*
X145740Y192450D01*
X146017Y192788D01*
X147079Y192220D01*
X146922Y191703D01*
X146774Y190198D01*
X146922Y188693D01*
X147361Y187246D01*
X148074Y185912D01*
X149033Y184743D01*
X150202Y183783D01*
X151536Y183071D01*
X152983Y182632D01*
X154488Y182483D01*
X155993Y182632D01*
X157440Y183071D01*
X158774Y183783D01*
X159943Y184743D01*
X160902Y185912D01*
X161615Y187246D01*
X162054Y188693D01*
X162203Y190198D01*
X162054Y191703D01*
X161615Y193150D01*
X160902Y194483D01*
X159943Y195652D01*
X158774Y196612D01*
X157440Y197325D01*
X155993Y197764D01*
X154488Y197912D01*
X152983Y197764D01*
X151536Y197325D01*
X150202Y196612D01*
X149033Y195652D01*
X148570Y195088D01*
X147508Y195656D01*
X147580Y195894D01*
X147710Y197206D01*
X147580Y198518D01*
X147198Y199779D01*
X146576Y200942D01*
X145740Y201961D01*
X145251Y202362D01*
X145674Y203543D01*
X148701D01*
Y211024D01*
D02*
G37*
G36*
X157165Y206299D02*
X155787D01*
Y203543D01*
X157165D01*
Y206299D01*
D02*
G37*
G36*
X154606Y211024D02*
X149882D01*
Y203543D01*
X154606D01*
Y211024D01*
D02*
G37*
G36*
X130984D02*
X126260D01*
Y203543D01*
X130984D01*
Y211024D01*
D02*
G37*
G36*
X125079D02*
X120354D01*
Y203543D01*
X125079D01*
Y211024D01*
D02*
G37*
G36*
X112382Y193504D02*
X107264D01*
Y191240D01*
X112382D01*
Y193504D01*
D02*
G37*
G36*
X105295D02*
X100177D01*
Y191240D01*
X105295D01*
Y193504D01*
D02*
G37*
G36*
X112382Y189272D02*
X107264D01*
Y187008D01*
X112382D01*
Y189272D01*
D02*
G37*
G36*
X75630Y180517D02*
Y177362D01*
X78785D01*
X78769Y177483D01*
X78343Y178512D01*
X77664Y179396D01*
X76780Y180075D01*
X75750Y180501D01*
X75630Y180517D01*
D02*
G37*
G36*
X73662Y180517D02*
X73541Y180501D01*
X72511Y180075D01*
X71627Y179396D01*
X70949Y178512D01*
X70522Y177483D01*
X70506Y177362D01*
X73662D01*
Y180517D01*
D02*
G37*
G36*
X78785Y175394D02*
X75630D01*
Y172239D01*
X75750Y172255D01*
X76780Y172681D01*
X77664Y173359D01*
X78343Y174244D01*
X78769Y175273D01*
X78785Y175394D01*
D02*
G37*
G36*
X73662D02*
X70506D01*
X70522Y175273D01*
X70949Y174244D01*
X71627Y173359D01*
X72511Y172681D01*
X73541Y172255D01*
X73662Y172239D01*
Y175394D01*
D02*
G37*
G36*
X97244Y164173D02*
X95177D01*
Y161614D01*
X97244D01*
Y164173D01*
D02*
G37*
G36*
X93209D02*
X91142D01*
Y161614D01*
X93209D01*
Y164173D01*
D02*
G37*
G36*
X76772Y141870D02*
Y139803D01*
X79331D01*
Y141870D01*
X76772D01*
D02*
G37*
G36*
X79331Y137835D02*
X76772D01*
Y135768D01*
X79331D01*
Y137835D01*
D02*
G37*
G36*
X99321Y136395D02*
Y132520D01*
X100344D01*
Y134685D01*
X100191Y135453D01*
X99756Y136104D01*
X99321Y136395D01*
D02*
G37*
G36*
X100344Y130551D02*
X99321D01*
Y126676D01*
X99756Y126967D01*
X100191Y127618D01*
X100344Y128386D01*
Y130551D01*
D02*
G37*
G36*
X94488Y57579D02*
X93504D01*
Y54921D01*
X94488D01*
Y57579D01*
D02*
G37*
G36*
X91535D02*
X90551D01*
Y54921D01*
X91535D01*
Y57579D01*
D02*
G37*
G36*
X54469Y55886D02*
X49351D01*
Y53622D01*
X54469D01*
Y55886D01*
D02*
G37*
G36*
X47382D02*
X42264D01*
Y53622D01*
X47382D01*
Y55886D01*
D02*
G37*
G36*
X37992Y48720D02*
Y45866D01*
X42815D01*
Y48720D01*
X37992D01*
D02*
G37*
G36*
X68543Y49992D02*
X65787D01*
Y44284D01*
X68543D01*
Y49992D01*
D02*
G37*
G36*
X63819D02*
X61063D01*
Y44284D01*
X63819D01*
Y49992D01*
D02*
G37*
G36*
X42815Y43898D02*
X37992D01*
Y41043D01*
X42815D01*
Y43898D01*
D02*
G37*
G36*
X68543Y42315D02*
X65787D01*
Y36607D01*
X68543D01*
Y42315D01*
D02*
G37*
G36*
X63819D02*
X61063D01*
Y36607D01*
X63819D01*
Y42315D01*
D02*
G37*
G36*
X52362Y37894D02*
X49803D01*
Y35827D01*
X52362D01*
Y37894D01*
D02*
G37*
G36*
X47835D02*
X45276D01*
Y35827D01*
X47835D01*
Y37894D01*
D02*
G37*
G36*
X52362Y33858D02*
X49803D01*
Y31791D01*
X52362D01*
Y33858D01*
D02*
G37*
G36*
X47835D02*
X45276D01*
Y31791D01*
X47835D01*
Y33858D01*
D02*
G37*
G36*
X88146Y280906D02*
X86571D01*
Y279921D01*
X88146D01*
Y280906D01*
D02*
G37*
G36*
Y277953D02*
X86571D01*
Y276969D01*
X88146D01*
Y277953D01*
D02*
G37*
G36*
X85039Y275009D02*
Y271854D01*
X88194D01*
X88178Y271974D01*
X87752Y273004D01*
X87074Y273888D01*
X86190Y274566D01*
X85160Y274993D01*
X85039Y275009D01*
D02*
G37*
G36*
X83071D02*
X82950Y274993D01*
X81921Y274566D01*
X81037Y273888D01*
X80358Y273004D01*
X79932Y271974D01*
X79916Y271854D01*
X83071D01*
Y275009D01*
D02*
G37*
G36*
X88194Y269885D02*
X85039D01*
Y266730D01*
X85160Y266746D01*
X86190Y267173D01*
X87074Y267851D01*
X87752Y268735D01*
X88178Y269765D01*
X88194Y269885D01*
D02*
G37*
G36*
X83071D02*
X79916D01*
X79932Y269765D01*
X80358Y268735D01*
X81037Y267851D01*
X81921Y267173D01*
X82950Y266746D01*
X83071Y266730D01*
Y269885D01*
D02*
G37*
G36*
X26673Y262344D02*
X24606D01*
Y259785D01*
X26673D01*
Y262344D01*
D02*
G37*
G36*
X22638D02*
X20571D01*
Y259785D01*
X22638D01*
Y262344D01*
D02*
G37*
G36*
X26673Y257816D02*
X24606D01*
Y255257D01*
X26673D01*
Y257816D01*
D02*
G37*
G36*
X22638D02*
X20571D01*
Y255257D01*
X22638D01*
Y257816D01*
D02*
G37*
G36*
X48228Y180118D02*
X45965D01*
Y175000D01*
X48228D01*
Y180118D01*
D02*
G37*
G36*
X43996D02*
X41732D01*
Y175000D01*
X43996D01*
Y180118D01*
D02*
G37*
G36*
X36949Y180118D02*
X31831D01*
Y176181D01*
X33796D01*
X33900Y176026D01*
X39439Y170487D01*
X39436Y170484D01*
X39010Y169455D01*
X38864Y168350D01*
X39010Y167245D01*
X39436Y166215D01*
X40115Y165331D01*
X40999Y164653D01*
X42028Y164226D01*
X43133Y164081D01*
X44238Y164226D01*
X45267Y164653D01*
X46152Y165331D01*
X46830Y166215D01*
X47256Y167245D01*
X47402Y168350D01*
X47256Y169455D01*
X46830Y170484D01*
X46152Y171368D01*
X45267Y172047D01*
X44238Y172473D01*
X43133Y172618D01*
X42500Y172535D01*
X36959Y178076D01*
X36949Y178127D01*
Y180118D01*
D02*
G37*
G36*
X58465Y155315D02*
X57480D01*
Y153740D01*
X58465D01*
Y155315D01*
D02*
G37*
G36*
X55512D02*
X54528D01*
Y153740D01*
X55512D01*
Y155315D01*
D02*
G37*
G36*
X58465Y151772D02*
X57480D01*
Y150197D01*
X58465D01*
Y151772D01*
D02*
G37*
G36*
X55512D02*
X54528D01*
Y150197D01*
X55512D01*
Y151772D01*
D02*
G37*
G36*
X10059Y178481D02*
X8954Y178336D01*
X7925Y177910D01*
X7041Y177231D01*
X6362Y176347D01*
X5936Y175317D01*
X5790Y174213D01*
X5936Y173108D01*
X6362Y172078D01*
X7041Y171194D01*
X7925Y170516D01*
X8954Y170089D01*
X10059Y169944D01*
X11164Y170089D01*
X12194Y170516D01*
X13078Y171194D01*
X13756Y172078D01*
X14182Y173108D01*
X14328Y174213D01*
X14182Y175317D01*
X13756Y176347D01*
X13078Y177231D01*
X12194Y177910D01*
X11164Y178336D01*
X10059Y178481D01*
D02*
G37*
G36*
X11043Y160635D02*
Y157480D01*
X14198D01*
X14182Y157601D01*
X13756Y158630D01*
X13078Y159515D01*
X12194Y160193D01*
X11164Y160619D01*
X11043Y160635D01*
D02*
G37*
G36*
X9075D02*
X8954Y160619D01*
X7925Y160193D01*
X7041Y159515D01*
X6362Y158630D01*
X5936Y157601D01*
X5920Y157480D01*
X9075D01*
Y160635D01*
D02*
G37*
G36*
Y155512D02*
X5920D01*
X5936Y155391D01*
X6362Y154362D01*
X7041Y153478D01*
X7925Y152799D01*
X8954Y152373D01*
X9075Y152357D01*
Y155512D01*
D02*
G37*
G36*
X14198D02*
X11043D01*
Y152357D01*
X11164Y152373D01*
X12194Y152799D01*
X13078Y153478D01*
X13756Y154362D01*
X14182Y155391D01*
X14198Y155512D01*
D02*
G37*
G36*
X11260Y40433D02*
X4173D01*
Y34331D01*
X8213D01*
X9563Y32981D01*
X9111Y31890D01*
X4173D01*
Y25787D01*
X11260D01*
X11260Y25787D01*
X12185Y26127D01*
X12441Y26162D01*
X12874Y26075D01*
X13768D01*
X13778Y26061D01*
X14367Y25667D01*
X14418Y25205D01*
X14399Y24428D01*
X13671Y23885D01*
X12736D01*
X12441Y23826D01*
X11614Y24273D01*
X11260Y24572D01*
Y24606D01*
X8701D01*
Y21555D01*
Y18504D01*
X11260D01*
Y20611D01*
X12272D01*
X12810Y20718D01*
X13265Y21023D01*
X13661Y21052D01*
X14339Y20521D01*
X14379Y19989D01*
X14293Y19244D01*
X13778Y18900D01*
X13343Y18248D01*
X13190Y17480D01*
X13343Y16712D01*
X13778Y16061D01*
X14429Y15626D01*
X15197Y15473D01*
X21496D01*
X22264Y15626D01*
X22819Y15997D01*
X25973D01*
X25982Y15982D01*
X26634Y15547D01*
X27402Y15394D01*
X28170Y15547D01*
X28821Y15982D01*
X29256Y16634D01*
X29409Y17402D01*
X29256Y18170D01*
X28821Y18821D01*
X28170Y19256D01*
X27402Y19409D01*
X26634Y19256D01*
X25982Y18821D01*
X25973Y18807D01*
X22977D01*
X22915Y18900D01*
X22264Y19335D01*
X22045Y19378D01*
Y20583D01*
X22264Y20626D01*
X22915Y21061D01*
X23206Y21496D01*
X18346D01*
Y23465D01*
X23206D01*
X22915Y23900D01*
X22264Y24335D01*
X22045Y24378D01*
Y25583D01*
X22264Y25626D01*
X22915Y26061D01*
X23350Y26712D01*
X23503Y27480D01*
X23350Y28248D01*
X22915Y28899D01*
X22264Y29335D01*
X22045Y29378D01*
Y30582D01*
X22264Y30626D01*
X22915Y31061D01*
X23350Y31712D01*
X23503Y32480D01*
X23350Y33248D01*
X22915Y33900D01*
X22264Y34335D01*
X21496Y34487D01*
X15197D01*
X14429Y34335D01*
X14357Y34287D01*
X13366D01*
X11260Y36393D01*
Y40433D01*
D02*
G37*
G36*
X6732Y24606D02*
X4173D01*
Y22539D01*
X6732D01*
Y24606D01*
D02*
G37*
G36*
Y20571D02*
X4173D01*
Y18504D01*
X6732D01*
Y20571D01*
D02*
G37*
G36*
X45118Y4606D02*
X44134D01*
Y3032D01*
X45118D01*
Y4606D01*
D02*
G37*
G36*
X42165D02*
X41181D01*
Y3032D01*
X42165D01*
Y4606D01*
D02*
G37*
G36*
X42104Y21496D02*
X37244D01*
X32385D01*
X32675Y21061D01*
X33326Y20626D01*
X33546Y20583D01*
Y19378D01*
X33326Y19335D01*
X32675Y18900D01*
X32240Y18248D01*
X32087Y17480D01*
X32240Y16712D01*
X32675Y16061D01*
X33326Y15626D01*
X34095Y15473D01*
X35839D01*
Y14055D01*
X35276D01*
Y8937D01*
X35276D01*
Y8150D01*
X35276D01*
Y3032D01*
X39213D01*
Y8150D01*
X39213D01*
Y8937D01*
X39213D01*
Y14055D01*
X38649D01*
Y15473D01*
X40394D01*
X41162Y15626D01*
X41813Y16061D01*
X42248Y16712D01*
X42401Y17480D01*
X42248Y18248D01*
X41813Y18900D01*
X41162Y19335D01*
X40943Y19378D01*
Y20583D01*
X41162Y20626D01*
X41813Y21061D01*
X42104Y21496D01*
D02*
G37*
G36*
X50591Y140826D02*
X49823Y140673D01*
X49606Y140529D01*
X48425Y140748D01*
Y140748D01*
X41929D01*
Y128543D01*
X48425D01*
Y128902D01*
X49751D01*
X49823Y128854D01*
X50591Y128702D01*
X51359Y128854D01*
X52010Y129289D01*
X52445Y129941D01*
X52598Y130709D01*
X52445Y131477D01*
X52010Y132128D01*
X51359Y132563D01*
X50591Y132716D01*
X49823Y132563D01*
X49751Y132515D01*
X48425D01*
Y136846D01*
X50318D01*
X50367Y136856D01*
X50591Y136812D01*
X51359Y136965D01*
X52010Y137400D01*
X52445Y138051D01*
X52598Y138819D01*
X52445Y139587D01*
X52010Y140238D01*
X51359Y140673D01*
X50591Y140826D01*
D02*
G37*
G36*
X36811Y140748D02*
X34547D01*
Y135630D01*
X36811D01*
Y140748D01*
D02*
G37*
G36*
X32579D02*
X30315D01*
Y135630D01*
X32579D01*
Y140748D01*
D02*
G37*
G36*
X36811Y133661D02*
X34547D01*
Y128543D01*
X36811D01*
Y133661D01*
D02*
G37*
G36*
X32579D02*
X30315D01*
Y128543D01*
X32579D01*
Y133661D01*
D02*
G37*
G36*
X96063Y111614D02*
X93504D01*
Y109547D01*
X96063D01*
Y111614D01*
D02*
G37*
G36*
X91536D02*
X88976D01*
Y109547D01*
X91536D01*
Y111614D01*
D02*
G37*
G36*
X96063Y107579D02*
X93504D01*
Y105512D01*
X96063D01*
Y107579D01*
D02*
G37*
G36*
X91536D02*
X88976D01*
Y105512D01*
X91536D01*
Y107579D01*
D02*
G37*
G36*
X101378Y101673D02*
X98819D01*
Y99606D01*
X101378D01*
Y101673D01*
D02*
G37*
G36*
X86221Y101673D02*
X83661D01*
Y99606D01*
X86221D01*
Y101673D01*
D02*
G37*
G36*
X100984Y8365D02*
Y5709D01*
X103641D01*
X103267Y6611D01*
X102667Y7392D01*
X101886Y7991D01*
X100984Y8365D01*
D02*
G37*
G36*
X99016Y8365D02*
X98114Y7991D01*
X97333Y7392D01*
X96733Y6611D01*
X96359Y5709D01*
X99016D01*
Y8365D01*
D02*
G37*
%LPD*%
D16*
X92520Y58563D02*
D03*
X88779Y67421D02*
D03*
X96260D02*
D03*
D17*
X37008Y44882D02*
D03*
X24409D02*
D03*
X72285Y10654D02*
D03*
X59687D02*
D03*
D18*
X82677Y32480D02*
D03*
X94488D02*
D03*
D19*
X102362Y220878D02*
D03*
Y213595D02*
D03*
X7717Y21555D02*
D03*
Y28839D02*
D03*
X48819Y34843D02*
D03*
Y27559D02*
D03*
X25984Y218602D02*
D03*
Y211319D02*
D03*
X90945Y213595D02*
D03*
Y220878D02*
D03*
X102362Y238897D02*
D03*
Y231613D02*
D03*
X28346Y246161D02*
D03*
Y238878D02*
D03*
X92520Y108563D02*
D03*
Y115847D02*
D03*
X102362Y102657D02*
D03*
Y109941D02*
D03*
X75787Y138819D02*
D03*
Y131535D02*
D03*
X82677Y109941D02*
D03*
Y102657D02*
D03*
X63386Y258130D02*
D03*
Y250847D02*
D03*
X7717Y37382D02*
D03*
Y44665D02*
D03*
D20*
X106280Y190256D02*
D03*
Y201870D02*
D03*
X61417Y109153D02*
D03*
Y120768D02*
D03*
X48366Y68484D02*
D03*
Y56870D02*
D03*
D21*
X84646Y196653D02*
D03*
Y190748D02*
D03*
X89961Y196653D02*
D03*
Y190748D02*
D03*
X96260Y246752D02*
D03*
Y240846D02*
D03*
X90945Y246752D02*
D03*
Y240846D02*
D03*
X85433Y246752D02*
D03*
Y240846D02*
D03*
X79921Y246752D02*
D03*
Y240846D02*
D03*
X34390Y178150D02*
D03*
Y184055D02*
D03*
X89130Y284842D02*
D03*
Y278937D02*
D03*
X93209Y265059D02*
D03*
Y270965D02*
D03*
X35571Y247047D02*
D03*
Y241142D02*
D03*
X21260Y247047D02*
D03*
Y241142D02*
D03*
X102362Y158169D02*
D03*
Y164075D02*
D03*
X96850Y279134D02*
D03*
Y285039D02*
D03*
X74803Y255315D02*
D03*
Y261221D02*
D03*
D22*
X45177Y134646D02*
D03*
X33563D02*
D03*
X56595Y181102D02*
D03*
X44980D02*
D03*
D23*
X165039Y285039D02*
D03*
Y279134D02*
D03*
Y273228D02*
D03*
Y267323D02*
D03*
Y261417D02*
D03*
Y255512D02*
D03*
Y249606D02*
D03*
Y243701D02*
D03*
Y237795D02*
D03*
Y231890D02*
D03*
Y225984D02*
D03*
Y220079D02*
D03*
Y214173D02*
D03*
X109921D02*
D03*
Y220079D02*
D03*
Y225984D02*
D03*
Y231890D02*
D03*
Y237795D02*
D03*
Y243701D02*
D03*
Y249606D02*
D03*
Y255512D02*
D03*
Y261417D02*
D03*
Y267323D02*
D03*
Y273228D02*
D03*
Y279134D02*
D03*
Y285039D02*
D03*
D24*
X158150Y207283D02*
D03*
X152244D02*
D03*
X146339D02*
D03*
X140433D02*
D03*
X134528D02*
D03*
X128622D02*
D03*
X122717D02*
D03*
X116811D02*
D03*
D25*
X50591Y152756D02*
D03*
X56496D02*
D03*
X99409Y116142D02*
D03*
X105315D02*
D03*
X79724D02*
D03*
X85630D02*
D03*
X80315Y158268D02*
D03*
X74409D02*
D03*
X31542Y287402D02*
D03*
X37448D02*
D03*
X43150Y11496D02*
D03*
X37244D02*
D03*
Y5591D02*
D03*
X43150D02*
D03*
D26*
X15991Y273622D02*
D03*
X52999D02*
D03*
D27*
X18583Y113721D02*
D03*
D28*
X46850Y122716D02*
D03*
Y104724D02*
D03*
D29*
X8051Y68583D02*
D03*
X33248D02*
D03*
D30*
X34843Y200787D02*
D03*
Y203937D02*
D03*
Y207087D02*
D03*
Y210236D02*
D03*
Y213386D02*
D03*
Y216535D02*
D03*
Y219685D02*
D03*
Y222835D02*
D03*
Y225984D02*
D03*
Y229134D02*
D03*
Y232283D02*
D03*
X79331Y232283D02*
D03*
Y229134D02*
D03*
Y225984D02*
D03*
Y222835D02*
D03*
Y219685D02*
D03*
Y216535D02*
D03*
Y213386D02*
D03*
Y210236D02*
D03*
Y207087D02*
D03*
Y203937D02*
D03*
Y200787D02*
D03*
D31*
X41339Y238779D02*
D03*
X44488D02*
D03*
X47638D02*
D03*
X50787D02*
D03*
X53937D02*
D03*
X57087D02*
D03*
X60236D02*
D03*
X63386D02*
D03*
X66535D02*
D03*
X69685D02*
D03*
X72835D02*
D03*
X72835Y194291D02*
D03*
X69685D02*
D03*
X66535D02*
D03*
X63386D02*
D03*
X60236D02*
D03*
X57087D02*
D03*
X53937D02*
D03*
X50787D02*
D03*
X47638D02*
D03*
X44488D02*
D03*
X41339D02*
D03*
D32*
X96850Y93799D02*
D03*
X88189D02*
D03*
X96850Y77461D02*
D03*
X88189D02*
D03*
D33*
X64803Y25583D02*
D03*
Y43299D02*
D03*
D34*
X48720Y250847D02*
D03*
X56004D02*
D03*
X30906Y258801D02*
D03*
X23622D02*
D03*
X44980D02*
D03*
X37697D02*
D03*
X94193Y160630D02*
D03*
X86910D02*
D03*
D35*
X98337Y150433D02*
D03*
X93337D02*
D03*
X88337D02*
D03*
X83337D02*
D03*
X98337Y131535D02*
D03*
X93337D02*
D03*
X88337D02*
D03*
X83337D02*
D03*
D36*
X18347Y32480D02*
D03*
Y27480D02*
D03*
Y22480D02*
D03*
Y17480D02*
D03*
X37244Y32480D02*
D03*
Y27480D02*
D03*
Y22480D02*
D03*
Y17480D02*
D03*
D68*
X93209Y231004D02*
X102362D01*
X96260Y67421D02*
X107865D01*
X108161Y67717D01*
X108268D01*
X88779Y67421D02*
Y76870D01*
X88189Y77461D02*
X88779Y76870D01*
X96260Y67421D02*
Y76870D01*
X96850Y77461D01*
X99409Y116043D02*
Y116142D01*
X99213Y115847D02*
X99409Y116043D01*
X92520Y115847D02*
X99213D01*
X92224Y116142D02*
X92520Y115847D01*
X85630Y116142D02*
X92224D01*
X88337Y124125D02*
Y131535D01*
X86614Y122402D02*
X88337Y124125D01*
X82708Y122402D02*
X86614D01*
X79724Y119419D02*
X82708Y122402D01*
X79724Y116142D02*
Y119419D01*
Y112894D02*
Y116142D01*
Y112894D02*
X80905Y111713D01*
Y111221D02*
Y111713D01*
Y111221D02*
X82185Y109941D01*
X82677D01*
X78821Y108661D02*
X81398D01*
X82677Y109941D01*
X77756Y107597D02*
X78821Y108661D01*
X77756Y96909D02*
Y107597D01*
Y96909D02*
X80866Y93799D01*
X88189D01*
X96850D02*
X103642D01*
X107283Y97441D01*
Y107283D01*
X105905Y108661D02*
X107283Y107283D01*
X104134Y108661D02*
X105905D01*
X102854Y109941D02*
X104134Y108661D01*
X102854Y109941D02*
X104134Y111221D01*
Y111713D01*
X105315Y112894D01*
Y116142D01*
X103445Y120374D02*
X105118Y118701D01*
Y116339D02*
Y118701D01*
Y116339D02*
X105315Y116142D01*
X97933Y120374D02*
X103445D01*
X93337Y124970D02*
X97933Y120374D01*
X93337Y124970D02*
Y131535D01*
X90453Y213595D02*
X90945Y213103D01*
X135736Y150411D02*
X136709D01*
X113779Y128454D02*
X135736Y150411D01*
X113779Y127559D02*
Y128454D01*
X63386Y250847D02*
X68504D01*
X70866Y253209D01*
X63386Y238779D02*
Y249508D01*
Y250846D01*
X56004Y249705D02*
Y250847D01*
Y249508D02*
Y249705D01*
Y246319D02*
Y249508D01*
X53937Y240118D02*
X53975Y240156D01*
Y244290D01*
X48720Y250847D02*
X49142Y250425D01*
Y246291D02*
Y250425D01*
X137598Y283268D02*
X140748D01*
X156693Y267323D01*
X70866Y253209D02*
Y269291D01*
X23071Y44665D02*
X23954Y43782D01*
X5512Y66043D02*
X8051Y68583D01*
X5512Y52618D02*
Y66043D01*
Y52618D02*
X7717Y50413D01*
X64567Y103150D02*
Y107677D01*
X63090Y109153D02*
X64567Y107677D01*
X61417Y109153D02*
X63090D01*
X59547Y108760D02*
X59941Y109153D01*
X58465Y107677D02*
X59547Y108760D01*
X58465Y103150D02*
Y107677D01*
X59941Y109153D02*
X61417D01*
X50484Y138819D02*
X50591D01*
X50318Y138653D02*
X50484Y138819D01*
X46654Y138653D02*
X50318D01*
X45177Y137177D02*
X46654Y138653D01*
X45177Y134646D02*
Y137177D01*
X46654Y130709D02*
X50591D01*
X45177Y132185D02*
X46654Y130709D01*
X45177Y132185D02*
Y134646D01*
X43543Y152756D02*
X50591D01*
X43583Y169291D02*
X43976D01*
X42690Y169790D02*
X43189Y169291D01*
X35177Y177303D02*
X42690Y169790D01*
X35177Y177303D02*
Y177953D01*
X158268Y285039D02*
X165039D01*
X156693Y267323D02*
X165039D01*
X35177Y184587D02*
X41301Y190710D01*
X35177Y184252D02*
Y184587D01*
X41301Y190710D02*
Y194254D01*
X41339Y194291D01*
X34980Y184055D02*
X35177Y184252D01*
X34390Y184055D02*
X34980D01*
X34390Y178150D02*
X34980D01*
X35177Y177953D01*
X87331Y156074D02*
X88261Y155144D01*
X87331Y156074D02*
Y160208D01*
X86910Y160630D02*
X87331Y160208D01*
X88261Y150508D02*
Y155144D01*
Y150508D02*
X88337Y150433D01*
X93412Y154829D02*
X94193Y155610D01*
Y160630D01*
X93412Y150508D02*
Y154829D01*
X93337Y150433D02*
X93412Y150508D01*
X90945Y208661D02*
Y213103D01*
X102362Y208661D02*
Y213595D01*
X102940Y214173D02*
X109921D01*
X102362Y213595D02*
X102940Y214173D01*
X103162Y220079D02*
X109921D01*
X102362Y220878D02*
X103162Y220079D01*
X86910Y220878D02*
X90945D01*
X85039Y219008D02*
X86910Y220878D01*
X85039Y217256D02*
Y219008D01*
X84319Y216535D02*
X85039Y217256D01*
X90244Y213386D02*
X90453Y213595D01*
X79331Y213386D02*
X90244D01*
X79331Y216535D02*
X84319D01*
X85077Y222872D02*
X93209Y231004D01*
X79368Y222872D02*
X85077D01*
X79331Y222835D02*
X79368Y222872D01*
X56595Y181102D02*
Y183957D01*
X60236Y187598D01*
X44980Y183169D02*
X50787Y188976D01*
X44488Y182677D02*
X44980Y183169D01*
X50787Y188976D02*
X55905D01*
X57087Y190157D01*
Y194291D01*
X126969Y166143D02*
X134551Y173725D01*
X122835Y154332D02*
X135748Y167245D01*
X137480D01*
X136709Y150411D02*
X137480Y151182D01*
X134551Y173725D02*
X134838D01*
X136389Y175276D01*
X137480D01*
X144488Y155198D02*
X159764D01*
X25984Y218602D02*
Y223228D01*
X53975Y244290D02*
X56004Y246319D01*
X49142Y246291D02*
X50787Y244646D01*
Y238779D02*
Y244646D01*
X30011Y217371D02*
X30926Y216456D01*
X32557D01*
X32599Y216498D01*
X34805D01*
X34843Y216535D01*
X27216Y217371D02*
X30011D01*
X25984Y218602D02*
X27216Y217371D01*
X29921Y212598D02*
X30709Y213386D01*
X34843D01*
X27264Y212598D02*
X29921D01*
X60236Y187598D02*
Y194291D01*
X83337Y131535D02*
X83337Y131535D01*
X75787Y131535D02*
X83337D01*
X7717Y44665D02*
Y50413D01*
Y44665D02*
X23071D01*
X23954Y40534D02*
X27106Y37382D01*
X23954Y40534D02*
Y43782D01*
X27106Y37382D02*
X32342D01*
X34983Y34741D01*
Y33026D02*
Y34741D01*
Y33026D02*
X35529Y32480D01*
X37244D01*
X12618D02*
X18347D01*
X9488Y35610D02*
X12618Y32480D01*
X8209Y37382D02*
X9488Y36102D01*
X7717Y37382D02*
X8209D01*
X48366Y27480D02*
X48661Y27776D01*
X37244Y27480D02*
X48366D01*
D69*
X56264Y250847D02*
Y257480D01*
Y249965D02*
Y250847D01*
X33583Y145669D02*
Y169291D01*
X31496D02*
X33583D01*
X26811Y173976D02*
X31496Y169291D01*
X26811Y173976D02*
Y186968D01*
X126899Y57747D02*
X145276Y39370D01*
Y29528D02*
Y39370D01*
X141732Y25984D02*
X145276Y29528D01*
X58406Y11736D02*
Y22323D01*
X99705Y18406D02*
X100689D01*
X72285Y10654D02*
X73128Y11496D01*
X93779D01*
X100000Y17717D01*
X104724Y28740D02*
X107480Y25984D01*
X98228Y28740D02*
X104724D01*
X94488Y32480D02*
X98228Y28740D01*
X82677Y26476D02*
Y32480D01*
Y26476D02*
X85531Y23622D01*
X103161D01*
X108082Y18701D01*
X108326D01*
X109310Y17717D01*
X109843D01*
X107480Y25984D02*
X141732D01*
X126899Y57747D02*
Y75404D01*
X135906Y84410D01*
X135277Y35592D02*
X135906Y36220D01*
X9449Y188189D02*
X16535D01*
X3937Y193701D02*
X9449Y188189D01*
X16535D02*
X21063Y192717D01*
X60827Y120866D02*
X61319Y120374D01*
X46850Y122776D02*
X56004D01*
X46732Y68583D02*
X48563D01*
X43858Y104783D02*
X46850D01*
X46909Y104724D01*
X54429D01*
X96850Y196850D02*
Y198973D01*
X56264Y250847D02*
X63386D01*
X56004D02*
X56264D01*
X56004Y249705D02*
X56264Y249965D01*
X55905Y249606D02*
X56004Y249705D01*
X55905Y249606D02*
X56004Y249508D01*
X150787Y96457D02*
X164567Y82678D01*
Y60630D02*
Y82678D01*
X153543Y49606D02*
X164567Y60630D01*
X118110Y7874D02*
X148031D01*
X114961Y4724D02*
X118110Y7874D01*
X111221Y4724D02*
X114961D01*
X148031Y7874D02*
X153543Y13386D01*
X59547Y108760D02*
X61319D01*
X58465D02*
X59547D01*
X62992Y145669D02*
Y182087D01*
X58268Y145669D02*
X62992D01*
X135906Y35706D02*
Y36220D01*
X153543Y13386D02*
Y49606D01*
X135906Y84410D02*
X137480D01*
X70079Y80905D02*
Y118110D01*
X67913Y120276D02*
X70079Y118110D01*
X64314Y120276D02*
X67913D01*
X58150Y68976D02*
X70079Y80905D01*
X51713Y68976D02*
X58150D01*
X48661Y68484D02*
X51221D01*
X48465D02*
X48661D01*
X48366D02*
X48465D01*
X63822Y120768D02*
X64314Y120276D01*
X51221Y68484D02*
X51713Y68976D01*
X21063Y192717D02*
X25984Y197638D01*
X21063Y192717D02*
X26811Y186968D01*
X68898Y164116D02*
X71711Y166929D01*
X68898Y140846D02*
Y164116D01*
X64314Y136262D02*
X68898Y140846D01*
X64314Y121260D02*
Y136262D01*
X70079Y131535D02*
X75787D01*
X33583Y145669D02*
X58268D01*
X33583Y143111D02*
Y145669D01*
X33563Y143091D02*
X33583Y143111D01*
Y134665D02*
Y143111D01*
X33563Y134646D02*
X33583Y134665D01*
X33563Y134646D02*
Y143091D01*
X96850Y198973D02*
X99255Y201378D01*
X93345Y226022D02*
X96850D01*
X91732Y224410D02*
X93345Y226022D01*
X91732Y221174D02*
Y224410D01*
X91437Y220878D02*
X91732Y221174D01*
X90945Y220878D02*
X91437D01*
X102362Y226022D02*
Y231004D01*
Y220878D02*
Y226022D01*
X96850D02*
X102362D01*
X96850Y204724D02*
Y226022D01*
X99213Y202362D02*
X105787D01*
X96850Y204724D02*
X99213Y202362D01*
X105787D02*
X106280Y201870D01*
X99255Y201378D02*
X105787D01*
X106280Y201870D01*
X3937Y227894D02*
X10000Y233957D01*
X3937Y193701D02*
Y227894D01*
X62992Y182087D02*
X67913Y187008D01*
X71711Y166929D02*
X80610D01*
X86122Y161417D01*
X86614D01*
X86910Y161122D01*
Y160630D02*
Y161122D01*
X63822Y120768D02*
X64314Y121260D01*
X61417Y120768D02*
X63822D01*
X67913Y187008D02*
X79067D01*
X118110Y143387D02*
X133937Y159213D01*
X118110Y143308D02*
Y143387D01*
X164567Y108662D02*
Y156694D01*
X150000Y171261D02*
X164567Y156694D01*
X144488Y171261D02*
X150000D01*
X152362Y96457D02*
X164567Y108662D01*
X150787Y96457D02*
X152362D01*
X133937Y159213D02*
X137480D01*
X144488Y96457D02*
X150787D01*
X33248Y68583D02*
X46732D01*
X10000Y233957D02*
X10717D01*
X12193Y235433D01*
X12992D01*
X25984Y197638D02*
Y211319D01*
X48563Y68583D02*
X48661Y68484D01*
X56004Y122776D02*
X57913Y120866D01*
X60827D01*
X54429Y104724D02*
X58465Y108760D01*
X63228Y21646D02*
X63819D01*
X58406Y22323D02*
X63819D01*
X53248Y27480D02*
X58406Y22323D01*
X48957Y27480D02*
X53248D01*
X48661Y27776D02*
X48957Y27480D01*
D70*
X26575Y247047D02*
X28346Y245276D01*
X58165Y11496D02*
X58406Y11736D01*
X43150Y11496D02*
X58165D01*
X48366Y68386D02*
X48465Y68484D01*
X89961Y187795D02*
Y190748D01*
Y187795D02*
X94193Y183563D01*
Y176831D02*
Y183563D01*
X89961Y196653D02*
Y200188D01*
X83062Y207087D02*
X89961Y200188D01*
X79331Y207087D02*
X83062D01*
X93504Y191066D02*
Y200359D01*
Y191066D02*
X102362Y182208D01*
X37795Y252629D02*
Y269058D01*
X39809Y271071D02*
X47731D01*
X37795Y269058D02*
X39809Y271071D01*
X47731D02*
X49889Y273228D01*
X30926Y252742D02*
Y269290D01*
X29145Y271071D02*
X30926Y269290D01*
X21140Y271071D02*
X29145D01*
X18983Y273228D02*
X21140Y271071D01*
X63386Y249508D02*
X63681Y249803D01*
X37795Y252629D02*
X44488Y245936D01*
X30926Y252742D02*
X32920Y250748D01*
X82284Y284842D02*
X89130D01*
X76732Y279291D02*
X82284Y284842D01*
X70866Y279291D02*
X76732D01*
X40147Y276375D02*
X50246D01*
X37448Y279075D02*
X40147Y276375D01*
X37448Y279075D02*
Y287402D01*
X31542Y279134D02*
Y287402D01*
X28783Y276375D02*
X31542Y279134D01*
X18744Y276375D02*
X28783D01*
X15991Y273622D02*
X18744Y276375D01*
X50246D02*
X52999Y273622D01*
X36772Y250748D02*
X41339Y246181D01*
X32920Y250748D02*
X36772D01*
X44488Y238779D02*
Y245936D01*
X41339Y238779D02*
Y246181D01*
X79921Y247342D02*
X80512Y246752D01*
X107513Y284678D02*
X109560D01*
X98819Y275984D02*
X107513Y284678D01*
X98819Y262331D02*
Y275984D01*
X99702Y285034D02*
X101468Y283268D01*
X96856Y285034D02*
X99702D01*
X96850Y285039D02*
X96856Y285034D01*
X94554Y285039D02*
X96850D01*
X93209Y283694D02*
X94554Y285039D01*
X76378Y266657D02*
Y273780D01*
X74803Y265082D02*
X76378Y266657D01*
X74803Y261221D02*
Y265082D01*
X70866Y279291D02*
X76378Y273780D01*
X93209Y263189D02*
Y265059D01*
X90889Y260870D02*
X93209Y263189D01*
X84055Y260870D02*
X90889D01*
X74803Y252126D02*
Y255315D01*
X66535Y243858D02*
X74803Y252126D01*
X66535Y238779D02*
Y243858D01*
X93209Y270965D02*
Y283694D01*
X90945Y247342D02*
X91240Y247047D01*
X91535Y246752D01*
X92033Y270965D02*
X92126D01*
X96850Y263386D02*
Y279134D01*
X88681Y255217D02*
X96850Y263386D01*
X81693Y255217D02*
X88681D01*
X85996Y249508D02*
X98819Y262331D01*
X80807Y249508D02*
X85996D01*
X79921Y248622D02*
X80807Y249508D01*
X105787Y267323D02*
X109921D01*
X104724Y266260D02*
X105787Y267323D01*
X104724Y259017D02*
Y266260D01*
X106404Y279134D02*
X109921D01*
X100787Y273517D02*
X106404Y279134D01*
X100787Y261516D02*
Y273517D01*
X86221Y246949D02*
X100787Y261516D01*
X102756Y272047D02*
X103937Y273228D01*
X102756Y260415D02*
Y272047D01*
X90945Y248604D02*
X102756Y260415D01*
X90945Y247342D02*
Y248604D01*
X96260Y250553D02*
X104724Y259017D01*
X96260Y246752D02*
Y250553D01*
X42191Y169291D02*
X42887Y168596D01*
X43133Y168350D01*
X48465Y68484D02*
X48563Y68583D01*
X102362Y164075D02*
Y182208D01*
X93504Y200359D02*
X93510Y200365D01*
Y200536D01*
X109921Y267323D02*
X109921Y267323D01*
X82974Y203248D02*
X84646Y201576D01*
X82353Y203248D02*
X82974D01*
X81664Y203937D02*
X82353Y203248D01*
X79331Y203937D02*
X81664D01*
X103937Y273228D02*
X109921D01*
X90945Y246752D02*
X91535D01*
X85946Y246949D02*
X86221D01*
X85749Y246752D02*
X85946Y246949D01*
X85433Y246752D02*
X85749D01*
X78051Y251575D02*
X81693Y255217D01*
X79921Y247342D02*
Y248622D01*
X109560Y284678D02*
X109921Y285039D01*
X79921Y246752D02*
X80512D01*
X72835Y238378D02*
X77453D01*
X79134Y240059D01*
X72835Y238378D02*
Y238779D01*
X79134Y240059D02*
Y240650D01*
X79331Y240846D01*
X79921D01*
X96260Y237539D02*
Y240846D01*
X90945Y236870D02*
Y240846D01*
X85433Y235255D02*
Y240846D01*
X100679Y158169D02*
X102362D01*
X72869Y238814D02*
X72872Y238817D01*
X72835Y238779D02*
X72869Y238814D01*
X82499Y232321D02*
X85433Y235255D01*
X79368Y232321D02*
X82499D01*
X79331Y232283D02*
X79368Y232321D01*
X79331Y229134D02*
X83209D01*
X90945Y236870D01*
X84742Y226022D02*
X96260Y237539D01*
X79368Y226022D02*
X84742D01*
X11811Y205433D02*
X12883D01*
X11764Y217237D02*
X12992D01*
Y215433D02*
Y217237D01*
X11476Y215433D02*
Y216765D01*
X12883Y205433D02*
X18209Y210759D01*
Y217594D01*
X18110Y217692D02*
Y219685D01*
Y217692D02*
X18209Y217594D01*
X18110Y219685D02*
X27559Y229134D01*
X84646Y196653D02*
Y201576D01*
X98337Y155827D02*
X100679Y158169D01*
X80315Y158268D02*
X83268Y155315D01*
X74409Y158268D02*
Y162402D01*
X69723Y243193D02*
X78051Y251521D01*
X69723Y238817D02*
Y243193D01*
X78051Y251521D02*
Y251575D01*
X79331Y225984D02*
X79368Y226022D01*
X83847Y210199D02*
X93510Y200536D01*
X79368Y210199D02*
X83847D01*
X94193Y176831D02*
X94646Y176378D01*
X90453Y213595D02*
X90945D01*
X79331Y210236D02*
X79368Y210199D01*
X44980Y183169D02*
Y184646D01*
Y181102D02*
Y183169D01*
X84646Y176378D02*
Y190748D01*
X88090Y77362D02*
X88189Y77461D01*
X85630Y116142D02*
X85630Y116142D01*
X46732Y68583D02*
X46870Y68445D01*
X46673Y68642D02*
X46732Y68583D01*
X48366Y62677D02*
Y68386D01*
X7717Y21634D02*
X8099Y22016D01*
X11764Y217237D02*
X26811Y232283D01*
X34843D01*
X19685Y235433D02*
X21260Y237008D01*
X12992Y235433D02*
X19685D01*
X21063Y246850D02*
X21260Y247047D01*
X17087Y245433D02*
X18504Y246850D01*
X21063D01*
X11811Y245433D02*
X17087D01*
X26575Y237598D02*
X27854Y238878D01*
X61319Y108760D02*
X62106Y107972D01*
X27854Y238878D02*
X28346D01*
X21260Y237008D02*
Y241142D01*
X89130Y284842D02*
X89228Y284744D01*
X69685Y238779D02*
X69723Y238817D01*
X72869Y238814D02*
Y240192D01*
X35571Y237659D02*
Y241142D01*
Y237659D02*
X39764Y233466D01*
X53544Y219685D02*
X79331D01*
X39764Y233466D02*
X53544Y219685D01*
X39764Y233466D02*
Y233466D01*
X28346Y246161D02*
X29232Y247047D01*
X35571D01*
X28346Y245276D02*
Y245276D01*
X21260Y247047D02*
X26575D01*
X25984Y211319D02*
X27264Y212598D01*
X79134Y194988D02*
X79331Y195185D01*
X79134Y194882D02*
Y194988D01*
X79331Y195185D02*
Y200787D01*
X27559Y229134D02*
X34843D01*
X27936Y244865D02*
X28346Y245276D01*
X21853Y17402D02*
X27402D01*
X21850Y17405D02*
X21853Y17402D01*
X18422Y17405D02*
X21850D01*
X18347Y17480D02*
X18422Y17405D01*
X83268Y150502D02*
X83337Y150433D01*
X83268Y150502D02*
Y155315D01*
X98337Y150433D02*
Y155827D01*
X9488Y35610D02*
Y36102D01*
X12272Y22016D02*
X12736Y22480D01*
X18347D01*
X8099Y22016D02*
X12272D01*
X12206Y28148D02*
X12874Y27480D01*
X18347D01*
X8485Y28148D02*
X12206D01*
X37244Y11496D02*
Y17480D01*
Y5591D02*
Y11496D01*
D71*
X91535Y62992D02*
X105115D01*
X105221Y63099D01*
X89173Y65354D02*
X91535Y62992D01*
X89173Y65354D02*
Y67028D01*
X88779Y67421D02*
X89173Y67028D01*
D72*
X12992Y195433D02*
D03*
X11811Y205433D02*
D03*
X12992Y215433D02*
D03*
X11811Y225433D02*
D03*
X12992Y235433D02*
D03*
X74646Y176378D02*
D03*
X84646D02*
D03*
X84055Y260870D02*
D03*
Y270869D02*
D03*
X33543Y152756D02*
D03*
X43543D02*
D03*
X33133Y168350D02*
D03*
X43133D02*
D03*
X70866Y269291D02*
D03*
X10059Y156496D02*
D03*
Y174213D02*
D03*
D73*
X11811Y245433D02*
D03*
X70866Y279291D02*
D03*
D74*
X135906Y16220D02*
D03*
D75*
Y36220D02*
D03*
D76*
X94646Y176378D02*
D03*
D77*
X109843Y4724D02*
D03*
X100000D02*
D03*
X90158D02*
D03*
X109843Y17717D02*
D03*
X100000D02*
D03*
X90158D02*
D03*
D78*
X19862Y151555D02*
D03*
Y179154D02*
D03*
D79*
X144488Y179292D02*
D03*
X137480Y175276D02*
D03*
X144488Y171261D02*
D03*
X137480Y167245D02*
D03*
X144488Y163229D02*
D03*
X137480Y159213D02*
D03*
X144488Y155198D02*
D03*
X137480Y151182D02*
D03*
X154488Y140198D02*
D03*
Y190198D02*
D03*
X144488Y104489D02*
D03*
X137480Y100473D02*
D03*
X144488Y96457D02*
D03*
X137480Y92442D02*
D03*
X144488Y88426D02*
D03*
X137480Y84410D02*
D03*
X144488Y80395D02*
D03*
X137480Y76379D02*
D03*
X154488Y65395D02*
D03*
Y115395D02*
D03*
D80*
X140984Y133190D02*
D03*
Y197206D02*
D03*
Y58387D02*
D03*
Y122402D02*
D03*
D81*
X13780Y305118D02*
D03*
X114173Y43307D02*
D03*
D82*
X105221Y63099D02*
D03*
X108268Y67717D02*
D03*
X96260Y51181D02*
D03*
X92520D02*
D03*
X88583D02*
D03*
X69359Y51968D02*
D03*
X60630Y52173D02*
D03*
X74803Y101378D02*
D03*
Y107283D02*
D03*
Y113189D02*
D03*
Y120079D02*
D03*
X2362Y8397D02*
D03*
Y14036D02*
D03*
Y19675D02*
D03*
Y25314D02*
D03*
Y30953D02*
D03*
Y36593D02*
D03*
Y42232D02*
D03*
Y47871D02*
D03*
Y53510D02*
D03*
Y59149D02*
D03*
Y64788D02*
D03*
Y70427D02*
D03*
Y76066D02*
D03*
Y81706D02*
D03*
Y87345D02*
D03*
Y92984D02*
D03*
Y98623D02*
D03*
Y104262D02*
D03*
Y109901D02*
D03*
Y115540D02*
D03*
Y121179D02*
D03*
Y126819D02*
D03*
X153937Y55604D02*
D03*
X150127D02*
D03*
X110630Y74353D02*
D03*
Y79992D02*
D03*
Y85631D02*
D03*
Y91270D02*
D03*
Y96909D02*
D03*
Y102548D02*
D03*
Y108187D02*
D03*
X113779Y127559D02*
D03*
X110630Y113827D02*
D03*
Y119466D02*
D03*
Y125105D02*
D03*
Y130744D02*
D03*
Y136383D02*
D03*
Y142022D02*
D03*
Y147661D02*
D03*
Y153300D02*
D03*
Y158940D02*
D03*
Y164579D02*
D03*
Y170218D02*
D03*
Y175857D02*
D03*
Y181496D02*
D03*
X114173Y185433D02*
D03*
X115748Y190169D02*
D03*
Y195808D02*
D03*
Y201448D02*
D03*
X34548Y266142D02*
D03*
Y274129D02*
D03*
X34541Y281496D02*
D03*
X115748Y213687D02*
D03*
Y219327D02*
D03*
Y224966D02*
D03*
Y230605D02*
D03*
Y236244D02*
D03*
Y241883D02*
D03*
Y247522D02*
D03*
Y253161D02*
D03*
Y258801D02*
D03*
Y264440D02*
D03*
Y270079D02*
D03*
Y275718D02*
D03*
Y286741D02*
D03*
X100787Y287402D02*
D03*
X92913Y287402D02*
D03*
X2362Y284879D02*
D03*
Y279240D02*
D03*
Y273601D02*
D03*
Y267962D02*
D03*
X5512Y287402D02*
D03*
X11024Y287402D02*
D03*
X16790D02*
D03*
X22429D02*
D03*
X27936Y287402D02*
D03*
X40945Y287402D02*
D03*
X45177D02*
D03*
X50787D02*
D03*
X56496D02*
D03*
X62205D02*
D03*
X67716D02*
D03*
X73228D02*
D03*
X79067D02*
D03*
X84646D02*
D03*
X104724Y287402D02*
D03*
X137598Y283268D02*
D03*
X101468D02*
D03*
X166929Y55604D02*
D03*
Y49965D02*
D03*
Y44326D02*
D03*
Y38686D02*
D03*
Y33047D02*
D03*
Y27408D02*
D03*
Y21769D02*
D03*
Y16130D02*
D03*
Y10491D02*
D03*
Y4852D02*
D03*
X163351Y2362D02*
D03*
X157712D02*
D03*
X152072D02*
D03*
X146433D02*
D03*
X140794D02*
D03*
X135155D02*
D03*
X129516D02*
D03*
X123877D02*
D03*
X118238D02*
D03*
X84460D02*
D03*
X78821D02*
D03*
X73181D02*
D03*
X67542D02*
D03*
X61903D02*
D03*
X56264D02*
D03*
X50625D02*
D03*
X44986D02*
D03*
X40157D02*
D03*
X33707D02*
D03*
X28068D02*
D03*
X22429D02*
D03*
X16790D02*
D03*
X11151D02*
D03*
X5512D02*
D03*
X2362Y132458D02*
D03*
Y138097D02*
D03*
Y143736D02*
D03*
Y149375D02*
D03*
Y155014D02*
D03*
Y160653D02*
D03*
Y166293D02*
D03*
Y171932D02*
D03*
Y177571D02*
D03*
Y183210D02*
D03*
Y188849D02*
D03*
Y234136D02*
D03*
Y239775D02*
D03*
Y245415D02*
D03*
Y251054D02*
D03*
Y256693D02*
D03*
Y262323D02*
D03*
X98425Y161417D02*
D03*
X94193Y166143D02*
D03*
X98425Y124409D02*
D03*
X102362Y131496D02*
D03*
X50591Y130709D02*
D03*
Y138819D02*
D03*
X158268Y285039D02*
D03*
X44094Y250748D02*
D03*
X49889Y257480D02*
D03*
X109449Y185039D02*
D03*
X103150D02*
D03*
X102362Y208661D02*
D03*
X90945D02*
D03*
X102362Y243701D02*
D03*
X74409Y162402D02*
D03*
X95472Y102362D02*
D03*
X89567D02*
D03*
X126969Y166143D02*
D03*
X122835Y154332D02*
D03*
X159764Y155198D02*
D03*
X58465Y46850D02*
D03*
X64567Y103150D02*
D03*
X49449Y22480D02*
D03*
X74803Y94488D02*
D03*
X92520Y100394D02*
D03*
X27402Y22480D02*
D03*
X45118D02*
D03*
X58465Y103150D02*
D03*
X7717Y15433D02*
D03*
X43543Y42992D02*
D03*
Y46535D02*
D03*
X51811Y50866D02*
D03*
X45807D02*
D03*
X71457Y46850D02*
D03*
X48661Y41024D02*
D03*
X75787Y144488D02*
D03*
X56496Y157480D02*
D03*
X40157Y177165D02*
D03*
Y185039D02*
D03*
X25984Y223228D02*
D03*
X23622Y234646D02*
D03*
X63386Y262992D02*
D03*
X79134Y194882D02*
D03*
X48366Y62677D02*
D03*
X27402Y17402D02*
D03*
D83*
X96850Y196850D02*
D03*
X56264Y257480D02*
D03*
X70079Y131535D02*
D03*
X58268Y145669D02*
D03*
X96850Y226022D02*
D03*
X79067Y187008D02*
D03*
X118110Y143308D02*
D03*
M02*
