G04*
G04 #@! TF.GenerationSoftware,Altium Limited,Altium Designer,20.0.11 (256)*
G04*
G04 Layer_Color=8421504*
%FSLAX25Y25*%
%MOIN*%
G70*
G01*
G75*
%ADD16R,0.02362X0.05709*%
%ADD17R,0.10039X0.06102*%
%ADD18R,0.03937X0.07480*%
%ADD19R,0.05512X0.04528*%
%ADD20R,0.10630X0.04921*%
%ADD21R,0.03543X0.02362*%
%ADD22R,0.04921X0.10630*%
%ADD23R,0.05906X0.03150*%
%ADD24R,0.03150X0.05906*%
%ADD25R,0.02362X0.03543*%
%ADD26R,0.21850X0.08071*%
%ADD27R,0.24410X0.22835*%
%ADD28R,0.11811X0.06299*%
%ADD29R,0.07087X0.08661*%
%ADD30O,0.06299X0.02165*%
%ADD31O,0.02165X0.06299*%
%ADD32R,0.05512X0.05906*%
%ADD33R,0.05906X0.11811*%
%ADD34R,0.04528X0.05512*%
%ADD35O,0.02362X0.08661*%
%ADD36O,0.08661X0.02362*%
D16*
X92520Y58563D02*
D03*
X88779Y67421D02*
D03*
X96260D02*
D03*
D17*
X37008Y44882D02*
D03*
X24409D02*
D03*
X72285Y10654D02*
D03*
X59687D02*
D03*
D18*
X82677Y32480D02*
D03*
X94488D02*
D03*
D19*
X102362Y220878D02*
D03*
Y213595D02*
D03*
X7717Y21555D02*
D03*
Y28839D02*
D03*
X48819Y34843D02*
D03*
Y27559D02*
D03*
X25984Y218602D02*
D03*
Y211319D02*
D03*
X90945Y213595D02*
D03*
Y220878D02*
D03*
X102362Y238897D02*
D03*
Y231613D02*
D03*
X28346Y246161D02*
D03*
Y238878D02*
D03*
X92520Y108563D02*
D03*
Y115847D02*
D03*
X102362Y102657D02*
D03*
Y109941D02*
D03*
X75787Y138819D02*
D03*
Y131535D02*
D03*
X82677Y109941D02*
D03*
Y102657D02*
D03*
X63386Y258130D02*
D03*
Y250847D02*
D03*
X7717Y37382D02*
D03*
Y44665D02*
D03*
D20*
X106280Y190256D02*
D03*
Y201870D02*
D03*
X61417Y109153D02*
D03*
Y120768D02*
D03*
X48366Y68484D02*
D03*
Y56870D02*
D03*
D21*
X84646Y196653D02*
D03*
Y190748D02*
D03*
X89961Y196653D02*
D03*
Y190748D02*
D03*
X96260Y246752D02*
D03*
Y240846D02*
D03*
X90945Y246752D02*
D03*
Y240846D02*
D03*
X85433Y246752D02*
D03*
Y240846D02*
D03*
X79921Y246752D02*
D03*
Y240846D02*
D03*
X34390Y178150D02*
D03*
Y184055D02*
D03*
X89130Y284842D02*
D03*
Y278937D02*
D03*
X93209Y265059D02*
D03*
Y270965D02*
D03*
X35571Y247047D02*
D03*
Y241142D02*
D03*
X21260Y247047D02*
D03*
Y241142D02*
D03*
X102362Y158169D02*
D03*
Y164075D02*
D03*
X96850Y279134D02*
D03*
Y285039D02*
D03*
X74803Y255315D02*
D03*
Y261221D02*
D03*
D22*
X45177Y134646D02*
D03*
X33563D02*
D03*
X56595Y181102D02*
D03*
X44980D02*
D03*
D23*
X165039Y285039D02*
D03*
Y279134D02*
D03*
Y273228D02*
D03*
Y267323D02*
D03*
Y261417D02*
D03*
Y255512D02*
D03*
Y249606D02*
D03*
Y243701D02*
D03*
Y237795D02*
D03*
Y231890D02*
D03*
Y225984D02*
D03*
Y220079D02*
D03*
Y214173D02*
D03*
X109921D02*
D03*
Y220079D02*
D03*
Y225984D02*
D03*
Y231890D02*
D03*
Y237795D02*
D03*
Y243701D02*
D03*
Y249606D02*
D03*
Y255512D02*
D03*
Y261417D02*
D03*
Y267323D02*
D03*
Y273228D02*
D03*
Y279134D02*
D03*
Y285039D02*
D03*
D24*
X158150Y207283D02*
D03*
X152244D02*
D03*
X146339D02*
D03*
X140433D02*
D03*
X134528D02*
D03*
X128622D02*
D03*
X122717D02*
D03*
X116811D02*
D03*
D25*
X50591Y152756D02*
D03*
X56496D02*
D03*
X99409Y116142D02*
D03*
X105315D02*
D03*
X79724D02*
D03*
X85630D02*
D03*
X80315Y158268D02*
D03*
X74409D02*
D03*
X31542Y287402D02*
D03*
X37448D02*
D03*
X43150Y11496D02*
D03*
X37244D02*
D03*
Y5591D02*
D03*
X43150D02*
D03*
D26*
X15991Y273622D02*
D03*
X52999D02*
D03*
D27*
X18583Y113721D02*
D03*
D28*
X46850Y122716D02*
D03*
Y104724D02*
D03*
D29*
X8051Y68583D02*
D03*
X33248D02*
D03*
D30*
X34843Y200787D02*
D03*
Y203937D02*
D03*
Y207087D02*
D03*
Y210236D02*
D03*
Y213386D02*
D03*
Y216535D02*
D03*
Y219685D02*
D03*
Y222835D02*
D03*
Y225984D02*
D03*
Y229134D02*
D03*
Y232283D02*
D03*
X79331Y232283D02*
D03*
Y229134D02*
D03*
Y225984D02*
D03*
Y222835D02*
D03*
Y219685D02*
D03*
Y216535D02*
D03*
Y213386D02*
D03*
Y210236D02*
D03*
Y207087D02*
D03*
Y203937D02*
D03*
Y200787D02*
D03*
D31*
X41339Y238779D02*
D03*
X44488D02*
D03*
X47638D02*
D03*
X50787D02*
D03*
X53937D02*
D03*
X57087D02*
D03*
X60236D02*
D03*
X63386D02*
D03*
X66535D02*
D03*
X69685D02*
D03*
X72835D02*
D03*
X72835Y194291D02*
D03*
X69685D02*
D03*
X66535D02*
D03*
X63386D02*
D03*
X60236D02*
D03*
X57087D02*
D03*
X53937D02*
D03*
X50787D02*
D03*
X47638D02*
D03*
X44488D02*
D03*
X41339D02*
D03*
D32*
X96850Y93799D02*
D03*
X88189D02*
D03*
X96850Y77461D02*
D03*
X88189D02*
D03*
D33*
X64803Y25583D02*
D03*
Y43299D02*
D03*
D34*
X48720Y250847D02*
D03*
X56004D02*
D03*
X30906Y258801D02*
D03*
X23622D02*
D03*
X44980D02*
D03*
X37697D02*
D03*
X94193Y160630D02*
D03*
X86910D02*
D03*
D35*
X98337Y150433D02*
D03*
X93337D02*
D03*
X88337D02*
D03*
X83337D02*
D03*
X98337Y131535D02*
D03*
X93337D02*
D03*
X88337D02*
D03*
X83337D02*
D03*
D36*
X18347Y32480D02*
D03*
Y27480D02*
D03*
Y22480D02*
D03*
Y17480D02*
D03*
X37244Y32480D02*
D03*
Y27480D02*
D03*
Y22480D02*
D03*
Y17480D02*
D03*
M02*
